<svg id="Layer_1" data-name="Layer 1" xmlns="http://www.w3.org/2000/svg" viewBox="0 0 56.47 105.84"><defs><style>.cls-1{fill:#fff;}</style></defs><path class="cls-1" d="M321.29-109v47.28H300.83V-109H283.61v-19h17.22c0-5.17-.35-10,.11-14.74a43.76,43.76,0,0,1,2.77-12.73c3.19-7.59,9.36-11.8,17.66-12,6.18-.16,12.38.34,18.71.55V-151a57.3,57.3,0,0,0-8,.08c-2.55.36-5.35.89-7.41,2.29a8.4,8.4,0,0,0-3.19,5.51c-.45,4.84-.14,9.75-.14,15h18.18c-1,6.31-1.87,12.2-2.92,18-.09.48-1.32,1-2,1.06C330.29-108.92,326-109,321.29-109Z" transform="translate(-283.61 167.53)"/></svg>