<svg id="Layer_1" data-name="Layer 1" xmlns="http://www.w3.org/2000/svg" viewBox="0 0 96.21 96.11"><defs><style>.cls-1{fill:#fff;}</style></defs><path class="cls-1" d="M691.89-145.54c0,7.13,0,14.27,0,21.4-.09,15-11.19,26.34-26.21,26.48q-21.9.19-43.79,0c-15-.14-26.17-11.52-26.18-26.49q0-21.65,0-43.29a25.89,25.89,0,0,1,26.18-26.22q21.76,0,43.54,0c15,0,26.33,11.28,26.45,26.23C691.93-160.14,691.89-152.84,691.89-145.54ZM643.8-185.43H623.4c-12.08,0-19.51,7.48-19.51,19.59q0,20.28,0,40.56c0,11.76,7.51,19.35,19.22,19.36q20.53,0,41.06,0c12,0,19.45-7.39,19.47-19.34q0-20.66,0-41.3c0-11.14-7.59-18.8-18.69-18.87C657.9-185.46,650.85-185.43,643.8-185.43Z" transform="translate(-595.69 193.68)"/><path class="cls-1" d="M643.78-119.52a26.07,26.07,0,0,1-26.07-26.14,26.27,26.27,0,0,1,26.1-26.18,26.55,26.55,0,0,1,26.31,26.08C670.24-131.43,658.29-119.53,643.78-119.52Zm-17.33-26.27a17.47,17.47,0,0,0,17.23,17.61,17.53,17.53,0,0,0,17.45-17.42,17.45,17.45,0,0,0-17.25-17.31A17.4,17.4,0,0,0,626.45-145.79Z" transform="translate(-595.69 193.68)"/><path class="cls-1" d="M669.51-176.85a5.59,5.59,0,0,1,5.64,5.41,5.62,5.62,0,0,1-5.56,5.51,5.41,5.41,0,0,1-5.44-5.31A5.37,5.37,0,0,1,669.51-176.85Z" transform="translate(-595.69 193.68)"/></svg>