<svg id="Layer_1" data-name="Layer 1" xmlns="http://www.w3.org/2000/svg" viewBox="0 0 92.26 75.84"><defs><style>.cls-1{fill:#fff;}</style></defs><path class="cls-1" d="M409.83-118.06c14.58-1.45,21.55-3.65,25.49-8.2-3.26-1.53-6.81-2.79-9.92-4.74s-5.12-5.32-6.59-8.81l7.64-.45.14-.75c-8.79-3-13.3-9.12-14.19-18l8.28,2.07c.13-.28.27-.57.4-.86-3.81-3.07-6.95-6.6-8.17-11.44s-.29-9.29,2.07-13.85c10.84,11.59,23.14,19.77,39.73,19.92a48.67,48.67,0,0,1,.05-7c1.12-7.36,5.36-12.42,12.24-15a18.89,18.89,0,0,1,19.63,3.2c1.57,1.28,2.84,1.62,4.63.77,2.69-1.27,5.45-2.4,8.66-3.81-1.49,4.17-4.08,7.09-6.94,10.22l8.59-2.13.52.61c-2.47,2.35-5,4.66-7.39,7.09a4.48,4.48,0,0,0-1.52,2.66c1.51,41.53-40.89,66.9-78,51C413.35-116.3,411.61-117.21,409.83-118.06Z" transform="translate(-409.83 186.6)"/></svg>