<svg id="Layer_1" data-name="Layer 1" xmlns="http://www.w3.org/2000/svg" viewBox="0 0 95.5 95.49"><defs><style>.cls-1{fill:#fff;}</style></defs><path class="cls-1" d="M510.71-100.76c.62-4.76,1.22-9.33,1.82-13.9,0-.25.09-.49.13-.73a31.29,31.29,0,0,0-1.4-17.33c-6.87-18-1.2-38.4,13.22-51.22A47.93,47.93,0,0,1,577-191.16a47.69,47.69,0,0,1,26.75,45.77c-2,32.65-35.63,53.75-65.88,41.35a8.49,8.49,0,0,0-4.3-.41c-7,1.09-13.9,2.35-20.84,3.55C512.2-100.81,511.64-100.82,510.71-100.76Zm9.6-9.47c5.18-.89,9.88-1.78,14.62-2.47a7,7,0,0,1,3.76.48,40.56,40.56,0,0,0,25.48,3.11c21.28-4.26,35.18-25,31.22-46.63-3.86-21-24.54-35.51-45.7-31.95a39.88,39.88,0,0,0-28.56,58.47,8.57,8.57,0,0,1,1,5.67C521.46-119.29,521-115,520.31-110.23Z" transform="translate(-508.36 195.93)"/><path class="cls-1" d="M532.82-157.88c.21-6.48,2.64-9.94,6.71-12.3,2-1.17,3.52-.74,4.5,1.37a65,65,0,0,1,3,7.64,4.92,4.92,0,0,1-1.88,5.55c-1.61,1.26-1.51,2.46-.75,4.08,3.54,7.62,9.46,12.89,16.7,16.79.69.38,2.19-.11,3-.68,1.54-1.1,2.69-2.77,4.29-3.73a4.21,4.21,0,0,1,3.57-.14,39.34,39.34,0,0,1,5.63,4.06c1.66,1.32,1.76,2.91.47,4.57-.61.79-1.3,1.51-1.88,2.32-2.73,3.8-6.32,4.73-10.73,3.48-13.17-3.74-23-11.56-29.08-23.85A89.07,89.07,0,0,1,532.82-157.88Z" transform="translate(-508.36 195.93)"/></svg>