<?xml version="1.0" encoding="utf-8"?>
<!-- Generator: Adobe Illustrator 25.2.0, SVG Export Plug-In . SVG Version: 6.00 Build 0)  -->
<svg version="1.1" id="Layer_1" xmlns="http://www.w3.org/2000/svg" xmlns:xlink="http://www.w3.org/1999/xlink" x="0px" y="0px"
	 viewBox="0 0 324.4 324.5" style="enable-background:new 0 0 324.4 324.5;" xml:space="preserve">
<style type="text/css">
	.st0{fill:#F6921A;}
	.st1{fill:#FEFDFD;}
	.st2{fill:#F6931B;}
	.st3{fill:#F6931C;}
</style>
<path class="st0" d="M304.5,162.7c-0.4,80.7-66.6,144.1-146.2,141.7c-78.5-2.5-140.2-68.2-137.7-146.7S88.8,17.6,167.4,20.1
	c0,0,0,0,0,0C246.5,23,304.9,88.1,304.5,162.7z M205.7,165.3c0.3-0.4,0.3-0.6,0.4-0.6c0.3-0.1,0.5-0.2,0.8-0.3
	c11-3.3,16.2-11.3,17.9-22.1c1.5-9.7-1.3-17.9-9-24.4c-5.9-5.1-12.8-8.3-20-10.9c-1.7-0.6-2.2-1.2-1.7-3.1
	c1.9-6.9,3.5-13.9,5.3-20.8c0.6-2.1,0.2-2.9-2-3.3c-3.5-0.7-7-1.6-10.4-2.6c-2.1-0.6-2.8-0.1-3.3,2c-1.5,6.7-3.4,13.3-4.9,20
	c-0.4,1.8-0.9,2.5-2.8,1.9c-2.7-0.8-5.4-1.4-8.2-1.9c-1.8-0.3-2-1.1-1.6-2.8c1.8-6.7,3.3-13.5,5.1-20.3c0.6-2.1,0.1-2.9-2-3.3
	c-3.5-0.7-7-1.6-10.4-2.6c-2.1-0.6-2.8,0-3.2,2.1c-1.6,6.9-3.4,13.7-5,20.6c-0.5,2-1.1,2.4-3.1,1.9c-8.9-2.3-17.9-4.4-26.8-6.7
	c-1.7-0.4-2.4-0.3-2.8,1.5c-0.9,4.3-2.1,8.5-3.2,12.7c-0.4,1.5,0,2.1,1.5,2.4c3.4,0.7,6.8,1.6,10.1,2.6c5.4,1.7,7.4,5.4,6.1,10.7
	c-5.5,22.3-11.1,44.5-16.7,66.8c-1.2,4.7-3.7,6.1-8.4,5c-2.7-0.7-5.5-1.3-8.2-2.1c-1.8-0.5-2.6-0.1-3.3,1.6c-1.8,4.5-3.7,9-5.8,13.3
	c-1,2.2-0.3,2.7,1.8,3.2c8.7,2.1,17.3,4.3,25.9,6.4c2,0.5,2.8,1.1,2.2,3.5c-1.9,6.9-3.5,13.9-5.3,20.8c-0.4,1.8-0.2,2.6,1.8,3
	c3.5,0.7,7,1.6,10.4,2.6c2.1,0.6,3,0.4,3.6-2c1.5-6.9,3.4-13.7,5.1-20.6c0.4-1.8,0.9-2.5,2.9-1.8c2.6,0.8,5.2,1.5,7.9,2
	c1.9,0.4,2.2,1.1,1.8,3c-1.9,6.9-3.4,13.9-5.3,20.8c-0.5,1.9-0.1,2.6,1.8,3c3.6,0.8,7.2,1.7,10.7,2.7c1.8,0.5,2.7,0.2,3.2-1.9
	c1.5-6.8,3.4-13.5,5-20.3c0.6-2.6,1.6-3.3,4.1-2.7c4,0.9,8,1.4,12.1,1.5c9.1,0.6,18.1,0.2,26.1-4.9c10.3-6.6,14.3-16.9,15.9-28.5
	c1.2-7.7-1.5-15.6-7.2-20.9C212,169.2,209,167,205.7,165.3z"/>
<path class="st1" d="M205.7,165.3c3.2,1.7,6.1,3.9,8.8,6.3c5.7,5.4,8.4,13.2,7.2,20.9c-1.5,11.5-5.5,21.9-15.9,28.5
	c-8,5.1-17,5.5-26.1,4.9c-4.1-0.2-8.1-0.7-12.1-1.5c-2.5-0.6-3.5,0.1-4.1,2.7c-1.5,6.8-3.4,13.5-5,20.3c-0.5,2.1-1.4,2.4-3.2,1.9
	c-3.5-1-7.1-1.9-10.7-2.7c-1.9-0.4-2.3-1.1-1.8-3c1.8-6.9,3.4-13.9,5.3-20.8c0.5-1.9,0.1-2.6-1.8-3c-2.7-0.5-5.3-1.2-7.9-2
	c-2-0.7-2.5,0.1-2.9,1.8c-1.6,6.9-3.5,13.7-5.1,20.6c-0.5,2.4-1.5,2.6-3.6,2c-3.4-1-6.9-1.9-10.4-2.6c-2-0.4-2.2-1.3-1.8-3
	c1.8-6.9,3.3-13.9,5.3-20.8c0.7-2.4-0.1-3-2.2-3.5c-8.7-2.1-17.3-4.4-25.9-6.4c-2-0.5-2.8-1-1.8-3.2c2.1-4.4,4-8.8,5.8-13.3
	c0.7-1.7,1.5-2.1,3.3-1.6c2.7,0.8,5.4,1.4,8.2,2.1c4.7,1.1,7.3-0.4,8.4-5c5.6-22.3,11.1-44.5,16.7-66.8c1.3-5.4-0.7-9.1-6.1-10.7
	c-3.3-1-6.7-1.9-10.1-2.6c-1.5-0.3-1.9-0.9-1.5-2.4c1.1-4.2,2.3-8.4,3.2-12.7c0.4-1.9,1.1-2,2.8-1.5c8.9,2.3,17.9,4.4,26.8,6.7
	c2,0.5,2.6,0.1,3.1-1.9c1.6-6.9,3.5-13.7,5-20.6c0.5-2.1,1.1-2.7,3.2-2.1c3.4,1.1,6.9,1.9,10.4,2.6c2.2,0.4,2.6,1.2,2,3.3
	c-1.8,6.7-3.3,13.5-5.1,20.3c-0.5,1.8-0.2,2.4,1.6,2.8c2.8,0.5,5.5,1.1,8.2,1.9c2,0.6,2.4-0.1,2.8-1.9c1.6-6.7,3.4-13.3,4.9-20
	c0.5-2.1,1.2-2.6,3.3-2c3.4,1.1,6.9,2,10.4,2.6c2.2,0.4,2.6,1.2,2,3.3c-1.8,6.9-3.4,13.9-5.3,20.8c-0.5,1.9,0,2.5,1.7,3.1
	c7.2,2.6,14.1,5.9,20,10.9c7.6,6.5,10.5,14.7,9,24.4c-1.7,10.8-7,18.8-17.9,22.1c-0.3,0.1-0.5,0.2-0.8,0.3
	C206.1,164.7,206,164.8,205.7,165.3z M171,203.4c2.1,0,4.2-0.2,6.3-0.7c5.9-1.3,10.2-4.5,11.8-10.6c1.6-6.1-0.4-11.2-5.1-15.4
	c-2-1.7-4.2-3.2-6.5-4.3c-8.2-4.1-17.1-6.1-26-8.1c-1.2-0.3-1.9-0.1-2.3,1.3c-2.5,10.3-5.1,20.7-7.7,31c-0.3,1.2-0.1,1.8,1.1,2.1
	C151.7,200.9,160.6,203.3,171,203.4L171,203.4z M176.3,152.4c1.6-0.1,3.3-0.1,4.9-0.3c8-0.9,13.2-6.2,13.3-13.8
	c0.1-6.5-3.8-10.5-9-13.5c-7-4-14.8-5.6-22.5-7.4c-1.2-0.3-1.7,0.2-2,1.4c-2.3,9.2-4.6,18.4-6.9,27.6c-0.3,1.2-0.2,2,1.3,2.4
	C162.3,150.4,169.1,152.2,176.3,152.4L176.3,152.4z"/>
<path class="st2" d="M171,203.4c-10.5-0.1-19.4-2.5-28.3-4.8c-1.3-0.3-1.4-0.9-1.1-2.1c2.6-10.3,5.2-20.6,7.7-31
	c0.4-1.4,1-1.6,2.3-1.3c8.9,2,17.7,4.1,26,8.1c2.4,1.1,4.6,2.6,6.5,4.3c4.7,4.1,6.7,9.2,5.1,15.4c-1.6,6.2-5.9,9.3-11.8,10.6
	C175.3,203.2,173.2,203.5,171,203.4z"/>
<path class="st3" d="M176.3,152.4c-7.1-0.2-14-2-20.8-3.7c-1.5-0.4-1.6-1.2-1.3-2.4c2.3-9.2,4.6-18.4,6.9-27.6
	c0.3-1.2,0.8-1.7,2-1.4c7.7,1.9,15.5,3.4,22.5,7.4c5.2,3,9.1,7,9,13.5c-0.2,7.6-5.3,13-13.3,13.8
	C179.6,152.3,177.9,152.3,176.3,152.4z"/>
</svg>
