<svg id="Layer_1" data-name="Layer 1" xmlns="http://www.w3.org/2000/svg" viewBox="0 0 324.42 324.48"><defs><style>.cls-1{fill:#f6921a;}.cls-2{fill:#fefdfd;}.cls-3{fill:#f6931b;}.cls-4{fill:#f6931c;}</style></defs><path class="cls-1" d="M800.71,249.77c-.48,92-76,164.29-166.71,161.64a162.23,162.23,0,1,1,10.32-324.3C734.54,90.48,801.14,164.69,800.71,249.77ZM688.1,252.68c.34-.5.38-.63.46-.66a6.14,6.14,0,0,1,.92-.38c12.53-3.75,18.53-12.89,20.46-25.18,1.75-11.11-1.51-20.45-10.23-27.86-6.78-5.76-14.64-9.43-22.86-12.45-1.9-.7-2.52-1.34-1.92-3.53,2.16-7.88,4-15.85,6.05-23.75.63-2.35.2-3.28-2.32-3.75a105.91,105.91,0,0,1-11.88-3c-2.39-.74-3.2-.09-3.74,2.28-1.76,7.64-3.83,15.21-5.62,22.85-.46,2-1,2.85-3.24,2.14a82.84,82.84,0,0,0-9.35-2.17c-2-.39-2.3-1.2-1.77-3.16,2.06-7.68,3.81-15.44,5.86-23.12.64-2.39.14-3.33-2.33-3.81a121.45,121.45,0,0,1-11.88-3c-2.44-.74-3.16,0-3.69,2.38-1.78,7.86-3.93,15.64-5.75,23.49-.53,2.26-1.31,2.7-3.57,2.11-10.15-2.65-20.37-5-30.53-7.65-1.89-.49-2.73-.39-3.2,1.76-1,4.86-2.34,9.66-3.62,14.46-.45,1.67-.05,2.34,1.7,2.72,3.88.84,7.75,1.82,11.54,3,6.14,1.91,8.49,6.12,7,12.24q-9.49,38.1-19,76.18c-1.33,5.31-4.25,7-9.61,5.73-3.11-.75-6.25-1.44-9.31-2.38-2-.62-2.92-.15-3.71,1.79-2.06,5.12-4.21,10.22-6.6,15.19-1.19,2.5-.31,3.09,2,3.64,9.88,2.38,19.71,4.95,29.59,7.34,2.32.56,3.23,1.23,2.47,4-2.21,7.86-4,15.85-6,23.76-.5,2-.25,3,2,3.47q6,1.23,11.9,3c2.4.71,3.47.42,4.08-2.32,1.75-7.87,3.88-15.65,5.76-23.49.47-2,1.08-2.84,3.33-2.07a76.71,76.71,0,0,0,9,2.33c2.11.44,2.55,1.31,2,3.43-2.11,7.9-3.92,15.87-6,23.77-.57,2.15-.08,2.93,2.06,3.38,4.1.87,8.16,1.94,12.2,3.07,2.1.58,3.12.28,3.67-2.13,1.76-7.75,3.93-15.41,5.65-23.17.64-2.94,1.86-3.73,4.68-3.06a81.12,81.12,0,0,0,13.81,1.74c10.39.65,20.68.25,29.79-5.57,11.78-7.53,16.33-19.31,18.08-32.47a26.93,26.93,0,0,0-8.16-23.84A51,51,0,0,0,688.1,252.68Z" transform="translate(-476.29 -87)"/><path class="cls-2" d="M688.1,252.68a51,51,0,0,1,10,7.2,26.93,26.93,0,0,1,8.16,23.84c-1.75,13.16-6.3,24.94-18.08,32.47-9.11,5.82-19.4,6.22-29.79,5.57A81.12,81.12,0,0,1,644.55,320c-2.82-.67-4,.12-4.68,3.06-1.72,7.76-3.89,15.42-5.65,23.17-.55,2.41-1.57,2.71-3.67,2.13-4-1.13-8.1-2.2-12.2-3.07-2.14-.45-2.63-1.23-2.06-3.38,2.1-7.9,3.91-15.87,6-23.77.56-2.12.12-3-2-3.43a76.71,76.71,0,0,1-9-2.33c-2.25-.77-2.86.12-3.33,2.07-1.88,7.84-4,15.62-5.76,23.49-.61,2.74-1.68,3-4.08,2.32q-5.88-1.74-11.9-3c-2.24-.45-2.49-1.51-2-3.47,2-7.91,3.82-15.9,6-23.76.76-2.73-.15-3.4-2.47-4-9.88-2.39-19.71-5-29.59-7.34-2.28-.55-3.16-1.14-2-3.64,2.39-5,4.54-10.07,6.6-15.19.79-1.94,1.73-2.41,3.71-1.79,3.06.94,6.2,1.63,9.31,2.38,5.36,1.29,8.28-.42,9.61-5.73q9.54-38.08,19-76.18c1.52-6.12-.83-10.33-7-12.24-3.79-1.18-7.66-2.16-11.54-3-1.75-.38-2.15-1.05-1.7-2.72,1.28-4.8,2.58-9.6,3.62-14.46.47-2.15,1.31-2.25,3.2-1.76,10.16,2.61,20.38,5,30.53,7.65,2.26.59,3,.15,3.57-2.11,1.82-7.85,4-15.63,5.75-23.49.53-2.36,1.25-3.12,3.69-2.38a121.45,121.45,0,0,0,11.88,3c2.47.48,3,1.42,2.33,3.81-2,7.68-3.8,15.44-5.86,23.12-.53,2-.27,2.77,1.77,3.16a82.84,82.84,0,0,1,9.35,2.17c2.27.71,2.78-.15,3.24-2.14,1.79-7.64,3.86-15.21,5.62-22.85.54-2.37,1.35-3,3.74-2.28a105.91,105.91,0,0,0,11.88,3c2.52.47,3,1.4,2.32,3.75-2.1,7.9-3.89,15.87-6.05,23.75-.6,2.19,0,2.83,1.92,3.53,8.22,3,16.08,6.69,22.86,12.45,8.72,7.41,12,16.75,10.23,27.86-1.93,12.29-7.93,21.43-20.46,25.18a6.14,6.14,0,0,0-.92.38C688.48,252.05,688.44,252.18,688.1,252.68Zm-39.57,43.54a31,31,0,0,0,7.2-.8c6.74-1.53,11.67-5.12,13.49-12.12s-.45-12.82-5.78-17.51a34,34,0,0,0-7.45-4.91c-9.38-4.65-19.5-6.94-29.61-9.27-1.41-.32-2.16-.11-2.57,1.53q-4.3,17.69-8.83,35.31c-.35,1.37-.15,2,1.3,2.35C626.44,293.37,636.58,296.07,648.53,296.22Zm6-58.23c1.87-.09,3.75-.11,5.62-.3,9.15-1,15-7.06,15.22-15.78.14-7.46-4.3-12-10.23-15.44-8-4.57-16.88-6.37-25.67-8.48-1.4-.33-1.93.22-2.27,1.58-2.57,10.5-5.22,21-7.86,31.47-.34,1.34-.25,2.26,1.43,2.68C638.55,235.68,646.34,237.76,654.49,238Z" transform="translate(-476.29 -87)"/><path class="cls-3" d="M648.53,296.22c-11.95-.15-22.09-2.85-32.25-5.42-1.45-.36-1.65-1-1.3-2.35q4.5-17.64,8.83-35.31c.41-1.64,1.16-1.85,2.57-1.53,10.11,2.33,20.23,4.62,29.61,9.27a34,34,0,0,1,7.45,4.91c5.33,4.69,7.62,10.44,5.78,17.51s-6.75,10.59-13.49,12.12A31,31,0,0,1,648.53,296.22Z" transform="translate(-476.29 -87)"/><path class="cls-4" d="M654.49,238c-8.15-.23-15.94-2.31-23.76-4.27-1.68-.42-1.77-1.34-1.43-2.68,2.64-10.48,5.29-21,7.86-31.47.34-1.36.87-1.91,2.27-1.58,8.79,2.11,17.71,3.91,25.67,8.48,5.93,3.42,10.37,8,10.23,15.44-.18,8.72-6.07,14.82-15.22,15.78C658.24,237.88,656.36,237.9,654.49,238Z" transform="translate(-476.29 -87)"/></svg>