<svg id="Layer_1" data-name="Layer 1" xmlns="http://www.w3.org/2000/svg" viewBox="0 0 358.31 302.14"><defs><style>.cls-1{fill:#e0001b;}.cls-2{fill:#be0617;}.cls-3{fill:#c30517;}.cls-4{fill:#cc031b;}.cls-5{fill:#c20519;}.cls-6{fill:#c8041a;}.cls-7{fill:#d0031a;}.cls-8{fill:#e0001c;}.cls-9{fill:#e0001f;}.cls-10{fill:#e10029;}.cls-11{fill:#c80418;}.cls-12{fill:#e00020;}.cls-13{fill:#e0001e;}.cls-14{fill:#d0031d;}.cls-15{fill:#e00021;}.cls-16{fill:#e73555;}.cls-17{fill:#e00123;}.cls-18{fill:#e00022;}.cls-19{fill:#ea516d;}.cls-20{fill:#e94b63;}.cls-21{fill:#e95068;}.cls-22{fill:#e00025;}.cls-23{fill:#e00024;}.cls-24{fill:#f08d9e;}.cls-25{fill:#f29dab;}.cls-26{fill:#f4adb8;}.cls-27{fill:#e0002d;}.cls-28{fill:#e00027;}.cls-29{fill:#e00029;}.cls-30{fill:#ed6d84;}.cls-31{fill:#ef7c91;}.cls-32{fill:#f29aa9;}.cls-33{fill:#ee7c90;}.cls-34{fill:#ec6880;}</style></defs><path class="cls-1" d="M545.45,330.34C516.8,306,492.2,278,473.56,245.48c-24.89-43.4-11.69-98,29.1-127.18,40.56-29,97.62-23,130.78,14.23,5.61,6.3,7.81,6.8,13.8.27,44-48,120.07-42.32,155.83,11.2,2.6,3.89,5.39,7.72,6.43,12.43,2.35,10,4.46,20.17,4.18,30.54-.13,4.94-1.16,9.84-4.73,13.72-8.64,3.08-9.62-3.62-10.58-9-2.67-15.06-7.7-28.86-17.55-40.91-20.57-25.16-56.79-40.22-93-30.8a14.77,14.77,0,0,0-7.7,4.82c-7.7,3.61-12.24,10.71-18.2,16.25-4,3.73-7,8.83-13,10.15-7.64,3.84-12.69.25-17.74-5.42-18.5-20.78-42.2-31.94-69.65-32.34-19.41-.27-38.39,1.75-53.84,18.34-8.44,9.07-18.73,16.14-25.13,27.57-10.56,18.86-11.22,39-8.46,59.23,1.22,8.93,7.74,16.89,13.37,24.43,18.07,24.21,37.07,47.62,59.6,67.91,6.29,5.67,13.3,10.54,18.21,17.67,2.22,3.23,4.25,6.16,1.05,9.85C557.31,341,552.35,333.2,545.45,330.34Z" transform="translate(-460.97 -100)"/><path class="cls-2" d="M819.07,197.47c1.14,18.7-4.56,35.52-13.57,51.63-24.36,43.55-59.42,77.29-98.12,107.73a716.88,716.88,0,0,1-60.89,42.59c-5.17,3.26-9.07,4-14.3,0-11.68-8.93-24.47-16.37-35.4-26.33,2.27-3.93,5.84-3.5,9.8-3.72,24.33-1.37,47.13-8.76,69.29-18.48,43-18,77.2-47.08,104.43-84.4,13.29-18.21,21.52-39.18,28.92-60.41C810.77,201.67,810.4,194.11,819.07,197.47Z" transform="translate(-460.97 -100)"/><path class="cls-3" d="M819.07,197.47c-2.66,2.27-4,5.31-5,8.56-10,33.29-28.25,61.55-51.22,87.52s-50.75,44.19-80.9,59.81a25.33,25.33,0,0,1-3.81,1.24c-3.12-4,1.91-7.29,1-11.09.56-4.54,4.68-5.34,7.74-6.89,35.09-17.75,62.89-44,87.19-74.37,4.79-6,9-12.35,8.63-20.79-.14-3.58,2.42-6.86,4.35-10a208.24,208.24,0,0,0,11.66-24.11c1.27-3.13,1.45-7.52,6.4-7.75,6.71-13.86,2.85-28.77,4.32-43.15C816.55,169.21,820.24,182.77,819.07,197.47Z" transform="translate(-460.97 -100)"/><path class="cls-4" d="M578.73,358.91a17.62,17.62,0,0,1-7.67-6.2c1.45-5.64,6.49-5,10.43-5.41,3.75-.41,7.45-.34,10.65-2.68,24.44,3.18,46.84-5.1,69.55-12.07,5.17-1.58,6.59-4.8,7.33-9.24a9.13,9.13,0,0,1,5.13-4.18c11.43.21,19.75-7.1,29.06-12.06,5.83.64,10.87-1.81,14.79-5.43,3.61-3.33,6.48-4.2,10.31-1.11,4.34,6.3-.37,8.63-4.53,12.27-14.32,12.53-31.4,20.45-47.68,29.8-18.55,7.85-37.49,14.68-57.35,18C605.48,362.75,591.85,364.52,578.73,358.91Z" transform="translate(-460.97 -100)"/><path class="cls-5" d="M682.22,344.53c-.25,3.79-2,7-4,10.07-26.07,10.83-52.49,20.13-81.4,18.48a18.61,18.61,0,0,1-7.93-6.1c1.82-5,5.95-4.06,10-4.32,25.79-1.67,50.32-8.44,73.87-19C675.93,343.25,679.43,340.18,682.22,344.53Z" transform="translate(-460.97 -100)"/><path class="cls-6" d="M674.16,346.54a180.53,180.53,0,0,1-60.3,17.92c-8.31,1-16.66,1.69-25,2.52a30.89,30.89,0,0,1-10.13-8.07c2-.41,4-1.39,5.86-1.14,32.81,4.31,62.16-7.61,91.58-19.29C678.69,342,676.12,344.18,674.16,346.54Z" transform="translate(-460.97 -100)"/><path class="cls-7" d="M593.56,348.56c-7.15,3.24-14.77,4-22.5,4.15a167.26,167.26,0,0,1-25.61-22.37l19.9,6.11c5.6-7,11.69-.45,17.55-.66C585.9,340.49,594.28,340.74,593.56,348.56Z" transform="translate(-460.97 -100)"/><path class="cls-8" d="M726.52,302.14c-8,2-13.94,8.59-22.14,10.2-5.5-5-.89-8.55,2-11.75,10.41-11.39,21.59-22,32.53-32.91,15.76-15.66,29.57-32.46,39.83-52.59,15.43-30.26,1.83-57.4-20.24-73.62-21.59-15.87-46-19.71-72.1-14.22-3.09.66-6.32,1.62-8.82-1.5a2.43,2.43,0,0,1,.56-2.82c13.28-11,29.14-11,44.77-9.2,41.41,4.85,77.64,40.15,80.71,79a49,49,0,0,0,1.52,6.86c-.2,12.73-8.77,22.48-12.18,34.07-13.72,25.44-31.39,47.55-54.62,65C734.81,301.36,731.28,303.73,726.52,302.14Z" transform="translate(-460.97 -100)"/><path class="cls-9" d="M583.5,338.56a60.44,60.44,0,0,1-18.15-2.11c-13.66-18.49-32.86-31.57-47.73-48.84-15.72-18.26-32.52-35.81-42.93-58-13.37-28.51-3.29-71.07,19.07-92,11.63-10.87,23.7-20.7,40.63-24.61,38.07-8.8,69.34,2,96.61,28.2,4.84,4.66,9,10.67,17,5.85,3,1.72,4,4.19,2.74,7.47-9.34,8.65-11.71,8.2-19.51-.82-24-27.72-54.25-38.69-90.34-31.81-8.79,1.68-17.83,2-26.15,7.67-5.53,3.79-9.12,7.39-10.85,13.43-8.42,12.6-19.62,23.38-22.44,39.44-3.88,22.14-2.62,42.41,15.91,58.18,4.8,4.94,7.35,11.51,11.87,16.66,1.57,2.32,3.13,4.64,4.57,7a17.45,17.45,0,0,0,10.37,8.75c2.82.89,3.85,3.29,4.86,5.73,5.6,12.89,17.25,20.15,26.88,29.35,8.14,7.76,17.75,13.69,25.71,21.64,2.45,2.45,6,4.08,4.67,8.53A1.92,1.92,0,0,1,583.5,338.56Z" transform="translate(-460.97 -100)"/><path class="cls-10" d="M648,155.13q0-4,0-8c10.57-7.42,17.1-19.89,30.19-24.16,0,.66,0,1.32,0,2a10.83,10.83,0,0,1,2.59,3.52c1,4.87-4.38,7.31-4.48,11.76-.38,3.7-4.87,4.73-5.39,8.35-.84,1.87-1.69,3.73-2.48,5.63-6.28,9.68-10.23,10.49-19.05,3.89A5.2,5.2,0,0,1,648,155.13Z" transform="translate(-460.97 -100)"/><path class="cls-11" d="M726.52,302.14c10.24-8.53,20.54-17,30.7-25.6,14.39-12.22,24.37-28.17,35.78-42.89-12,31.14-33.89,54.68-58.16,76.47-15.78,14.18-34.33,24.08-52.62,34.41l-8.06,2,2-8.06q21.08-13.37,42.13-26.75C722,309.37,725.42,306.74,726.52,302.14Z" transform="translate(-460.97 -100)"/><path class="cls-12" d="M672.14,139q3-5,6.05-10.07c31.95-7.82,61.41-4.78,87,18.43,18.42,16.7,24.09,36.42,14.57,58.66-8.76,20.42-19.9,39.35-36.12,55.08-22.15,21.46-43,44.24-67.47,63.26l-4,2c-4.65,3.92-9.58,7.17-16.06,6.75-5.69-3.92-3.91-8.37-.9-13,6.09-9.29,13.63-17.44,20.93-25.72,15.73-17.87,32.34-34.92,49.26-51.68,15.44-15.29,23.68-34.91,30.48-54.92,4-11.94-3.28-21.48-11.39-29.37-15.29-14.84-34.14-18.6-54.79-16.64C683.79,142.41,676.84,146.83,672.14,139Z" transform="translate(-460.97 -100)"/><path class="cls-13" d="M676.17,324.37c1.74-8.13,7.8-13.06,13.55-18.17,22.54-20,44.36-40.81,63.57-64,11.78-14.25,19.82-31,25.71-48.52,4.46-13.25-6.59-36.45-21.39-48-20.14-15.75-43.26-18.32-67.55-16.25-4,.34-8,1.31-11.87-.42,0-1.34,0-2.69,0-4,15.92-1.62,31.67-6.24,47.88-1.83,30.51,8.31,54.71,23.59,63.81,56.17a37,37,0,0,1-.56,22.66,150.5,150.5,0,0,1-36.14,58.53Q733.68,280.07,714,299.59c-3.83,3.81-7.47,7.72-9.66,12.75C696,318.78,686.11,321.61,676.17,324.37Z" transform="translate(-460.97 -100)"/><path class="cls-14" d="M656,330.39l16.12-4a5.52,5.52,0,0,1-3.24,5.77C645,343.1,621.2,354.74,593.56,348.56c-3.91-2.77-8.54-4.82-10.06-10l2-.07c2.69-4.28,7.71-3.7,11.56-5.56,17,4,33.38-.16,49.71-4C650.44,328.06,653.31,327.51,656,330.39Z" transform="translate(-460.97 -100)"/><path class="cls-15" d="M648,155.13h2c3.46,5.28,1.25,8.4-3.46,11.68-5,3.51-8,.62-10.56-2.56-6.11-7.59-12.42-14.83-20.65-20.28-26.26-17.4-54.35-23.16-84.92-13.74-2.6.8-5.13,1.74-6.81,4.09-1.48,1.5-3.42,2.26-5.24,3.21l-2.84.87c-5.26,0-9.34,3.94-14.46,4.44a14,14,0,0,1-2.17-1.81c4.28-10.6,13.38-16.1,23.32-18.92,34.9-9.89,68.1-6.79,98.14,15.42,5.15,3.81,9.94,8.08,13.31,13.47C637.38,157,641.91,158.18,648,155.13Z" transform="translate(-460.97 -100)"/><path class="cls-16" d="M525.08,280.26l-4.37-3.82c-4.69-10.08-13.09-18.11-15.6-29.46-5.35-24.1-6.12-47.72,6.22-70.16,1.8-3.27,3-7.9,8.43-7.12,6.1,4,3.56,9.68,2,14.47-7,21.46-1.48,42.41,2.21,63.4a24,24,0,0,0,5.49,11.65c2.15,4.94,6.71,8.79,6.62,14.75a10,10,0,0,1-.89,5c-1.86,2.34-4,3.94-7.26,3.1A11.77,11.77,0,0,1,525.08,280.26Z" transform="translate(-460.97 -100)"/><path class="cls-17" d="M498.87,141l2.18.05a12.09,12.09,0,0,1,4.88,4.39,8.13,8.13,0,0,1,1.79,3.65,18,18,0,0,1,0,2.84c-.29,2-1.31,3.68-2.08,5.49a6.5,6.5,0,0,1-2.1,2.26c-11.15,6.2-13.52,17.27-15.9,28.39-.54,3.28-1.42,6.52-1.4,9.87-.32,4.87,1.21,9.54,1.63,14.32-.3,4.91,4.37,7.26,5.69,11.28-1.74,7,4.72,12,4.62,18.68a2.35,2.35,0,0,1-2.2,1.46c-20.49-15.57-21.67-37.13-18.25-59.89A67.61,67.61,0,0,1,493,150.28C495.32,147.43,497.9,144.75,498.87,141Z" transform="translate(-460.97 -100)"/><path class="cls-18" d="M525.08,280.26l2.35.31c8.85-.18,15.51,2.85,20.78,10.69,4,5.91,10.62,9.86,16.16,14.58,12.09,6.88,19.26,19.74,31.82,26.08,2.83,1.42,3.17,3.9,1.41,6.57H585.51c-8.35-10.79-20.24-17.47-30.34-26.23C544.05,302.6,532.79,293.11,525.08,280.26Z" transform="translate(-460.97 -100)"/><path class="cls-19" d="M506.56,260.14q-5.28-8.22-10.55-16.43a3,3,0,0,1,1,0c-6.46-22.36-4-44.14,5.14-65.14,3.4-7.79,6.71-16.14,14.67-21a4.52,4.52,0,0,1,4.84,3.92c1,5.77-4.66,7.68-6.84,11.64-5.24,9.52-8.2,19.75-11,30.07-1.41,3.56-.77,7.29-.92,10.95v12.66c.16,3.62-.65,7.38,1.59,10.68.94,7.23,4.31,13.79,5.74,20.88C509.49,260.05,508.4,260.9,506.56,260.14Z" transform="translate(-460.97 -100)"/><path class="cls-20" d="M502.88,203.5c1.93-14.86,8-28.07,16.19-40.41a2.58,2.58,0,0,1,3.23.26c2.35,4,1.53,6.74-3.13,8-18.51,25.76-19.47,65.42-2.36,93.38,2.17,3.54,6.16,6.64,3.9,11.72a38,38,0,0,1-10-10.3c.39-3-1.22-5.49-1.75-8.25a58.09,58.09,0,0,1-6.06-20.14c-2.44-3,.43-7.07-2-10.08v-14.1C503.31,210.56,500.46,206.51,502.88,203.5Z" transform="translate(-460.97 -100)"/><path class="cls-21" d="M509,257.88c2.12,2.42,3.56,5,1.75,8.25l-4.14-6Z" transform="translate(-460.97 -100)"/><path class="cls-18" d="M597.6,338.49l-36.27-30.23c4.88-5.05,8.41.14,11.06,2.38,18.31,15.52,39.68,18.85,62.6,17.08,4.49-.35,6.58-3.4,8.92-6.38,12.83-16.33,23.89-33.94,37-50.06,7.77-9.54,16.76-17.78,25.36-26.43a66.41,66.41,0,0,0,13.93-19.41c6-13.1,12.83-25.76,18.7-38.92,2.87-6.43,2.11-12-1.82-17.11-11.2-14.71-26.52-20.3-44.58-19.47-5.71.26-11.34,1.16-17,1.87-3.26.41-8,1.51-7.43-4.74l4-8.06c12.05-.54,24-2.56,36.14-2.08,17.59.7,31.86,8.51,43.18,21,10.86,12,14.31,25.62,6.33,41.67-10.36,20.85-20.92,41-38.67,57-20.91,18.9-39,40.58-57,62.34-2.8,3.4-5.17,7-6.11,11.43C636.86,335.31,617.59,339.53,597.6,338.49Z" transform="translate(-460.97 -100)"/><path class="cls-22" d="M532.83,277.68c0-1.22,0-2.44,0-3.65,3.34-5.36,6.43-2.54,9.61.23a251.73,251.73,0,0,0,26.49,19.8c20.5,13.67,43.22,12,65.93,11.21,4.34-.15,7.55-3.24,9.13-7.09,13.52-33.06,39.59-58.05,56.93-88.65,3.82-6.74,7.51-13.47,10.12-20.75,3.54-9.89,1.43-14.83-8.3-19.21-15.55-7-30.77-4.91-45.68,2-15.48,7.21-15.57,7.4-26.41-5.47-26.2-31.12-69.88-40.22-101.12-28.3-1.06.07-2.1.1-3.15.07-3-.24-5.23-1.24-5.33-4.7,6-9.18,16.29-8.92,25.09-9.75,35.42-3.32,65.83,7.11,89,35.32,6.17,7.52,9.44,6.63,14.87-3.64,6.8,4.36,12.46,4.18,16.12-4a54.36,54.36,0,0,0,9-.12c14.08-1.39,28.13-2.34,41.74,2.87,1,.18,2.06.39,3.08.61,2.7,1.94,5.7,3.45,8.26,5.6,9.74,8.16,11.92,13.59,7.1,25.4C723.58,214.11,712.54,243,687.5,264c-11.6,9.74-19.68,23.36-27.47,36.61-4.38,6.25-8.86,12.42-12.94,18.87-4.11,5.93-9.65,8.82-17,7.92-3.62.46-7.16,2.06-10.9.94-10.94-2.25-21.51-6.24-32.78-7.17-16.09-11.46-34.16-20.24-47.9-34.88C536.24,283.86,532.3,282.15,532.83,277.68Z" transform="translate(-460.97 -100)"/><path class="cls-23" d="M619.76,324.38l10.07-2c5.45-1,12.45,4.12,16.12-4A65.61,65.61,0,0,1,658,300.2c10.57-19.43,22.57-38,39.54-52.35,21.39-18.08,26.86-44.44,37.79-68,1.73-3.74.23-6.52-2.26-9-4.77-4.68-9-9.94-14.63-13.7-15-7-30.64-5.58-46.34-4a5,5,0,0,1-6-2l2-4c7.67,2.92,15.3,0,22.83-.64a56.92,56.92,0,0,1,31.15,6.17c21,10.52,25,23.87,15.51,45.09-11.37,25.34-25.77,48-46.59,67.14-16.55,15.18-27.43,35.49-40.46,53.79-8.77,12.3-20.78,15.4-35.6,13.27-20.44-2.92-37-13.05-53.62-23.63-11.82-8.6-21.13-20.26-33.9-27.69l5.41-2.89c13.62,18.64,35.37,26.76,52.66,40.65C596.61,322.14,608.51,321.39,619.76,324.38Z" transform="translate(-460.97 -100)"/><path class="cls-24" d="M521,133.2l5.91,2.14c.26,8.53-6.93,11.64-11.89,16.37a10.71,10.71,0,0,1-6-.33c-3.76-3.17-1.33-5.66.78-8.36s5.87-4.44,6.62-8.38Z" transform="translate(-460.97 -100)"/><path class="cls-25" d="M516.41,134.64c4.41,8.38-6.41,8.84-7.48,14.37a2.74,2.74,0,0,1-4,.42l-2.7-1.94c1.8-6.68,7.68-9.18,12.77-12.49A1.25,1.25,0,0,1,516.41,134.64Z" transform="translate(-460.97 -100)"/><path class="cls-26" d="M515,135a47.87,47.87,0,0,1-12.77,12.49c-3-1.66-1.53-4.13-1.16-6.41C505.26,138.07,509,134,515,135Z" transform="translate(-460.97 -100)"/><path class="cls-27" d="M519.17,171.33l1.38-7.82c4.41-12.27,10.69-17,23.19-17.38,41.32-1.38,74.3,13.93,97.8,48.54,6.59,9.7,6.76,19.08.6,29.07-5.27,8.54-9.84,17.52-14.78,26.27a16.15,16.15,0,0,1-12.8,8.53c-17.33,2.28-35.17,4.73-51.86-.42-16.37-5.05-33.62-11-40.69-27,1.78,6.11,4.89,14.16,8.08,22.2-.51,3.2,1,7.12-3.16,9-15-20.51-15.8-43.8-12.75-67.65C515.19,186.8,517.47,179.1,519.17,171.33Z" transform="translate(-460.97 -100)"/><path class="cls-28" d="M526.93,262.32l-1.86-8.44c4.32-5.2,8-1.45,11,1.34,6.88,6.4,14.21,12.27,21.2,18.53,12,10.73,25.83,15.27,41.77,13,9-1.27,17.93-2.47,26.86-4,7.85-1.34,13.65-5.32,17.09-12.55,11.52-24.27,19.7-49.88,30-74.65,3.23-7.76-1.23-12.78-9.91-13-4.83-.1-9.23,1.61-13.52,3.55-6.4,2.89-11.65,1.44-16.26-3.66-2-2.24-3.88-4.62-5.78-7-21.57-26.44-49.57-36.61-83.07-32.81-4,.45-7.93,1.85-11.79-.42a6.59,6.59,0,0,1-4.33-4.16,4.88,4.88,0,0,1,.54-3c32.81-14.67,78-2.61,104.18,28.94,6.85,8.25,11.7,9.07,20.83,3.79,19.11-11,38.83-10.92,58.22.49,7.8,4.58,9.37,10.09,5.81,18.46a265.3,265.3,0,0,1-37.23,61.71c-12.85,16.09-23.76,33.26-31.66,52.26-3.41,8.21-8.38,11.95-17.79,10.83a165.76,165.76,0,0,0-22.93-.76c-27,.55-46.82-13.44-65.52-30.24-3-2.7-5.8-5.61-9.94-6.54C530.34,270.38,527.78,266.78,526.93,262.32Z" transform="translate(-460.97 -100)"/><path class="cls-29" d="M532.52,139.2c14.3-2.25,28.66-3.59,43-1,24.33,4.32,43.34,17.39,58,36.88,5.05,6.73,10.13,9.19,17.84,4.74a24.77,24.77,0,0,1,12.55-3.23c15,.13,19.86,7.56,14.33,21.05-9.26,22.65-18.6,45.27-27.21,68.16-5.24,13.94-13.54,22.59-29.21,23.11-6.66.22-13.32,1.6-19.88,2.92-26.17,5.27-44.05-9.27-61.28-25.4-4.88-4.57-9.22-9.79-15.59-12.5-8-16-10.92-29.7-8.15-39.37,4.76,1.76,6,6.29,7.45,10,7.23,18.21,24.13,23.7,40.08,28.61,15.37,4.73,31.84,2.37,47.85.5a13.71,13.71,0,0,0,11.2-7.39c5.19-9.38,10.54-18.67,15.76-28,3.39-6.1,2.92-12.08-.39-18.17C621.44,168,576,145.86,539.71,151.3c-8.57,1.28-11.87,9.62-19.16,12.21-.5-.12-1-.26-1.48-.42-.3-1.47-.7-2.88-2.33-3.46a14.42,14.42,0,0,1-6.66.21,19.49,19.49,0,0,1-6.9-4.06l1.74-4.68c4.31-2.43,9.92.69,13.88-3.23a22.79,22.79,0,0,1,2.19-1.73C524.78,143.75,529,142.06,532.52,139.2Z" transform="translate(-460.97 -100)"/><path class="cls-30" d="M510.94,157.2c2.39-.27,4.06,1.15,5.8,2.43-16.29,23-23.05,48.31-18.84,76.34a12.89,12.89,0,0,1-.85,7.78c-3.42-5.73-6.79-11.49-8.17-18.15-1.52-22.4,3.2-43.25,15.59-62.17C506.14,160.87,507.8,158.26,510.94,157.2Z" transform="translate(-460.97 -100)"/><path class="cls-31" d="M510.94,157.2c-14.35,20.54-17.83,44.59-22.06,68.4-2.29-3.75-4-7.67-3.82-12.2-1.35-21.06,3.67-40.11,17.77-56.3.11-.44.23-.88.35-1.32C505.84,155.86,508.61,155.29,510.94,157.2Z" transform="translate(-460.97 -100)"/><path class="cls-32" d="M502.83,157.1c.82,6-3.87,9.67-6.1,14.32-6.39,13.35-9.2,27.6-11.67,42-2.69-5.05-2.38-10.48-2-15.92,1.58-3.35-.26-7.15,1.36-10.5C486.85,174.73,488.56,162.06,502.83,157.1Z" transform="translate(-460.97 -100)"/><path class="cls-27" d="M521,149.39c-5.18,2.34-10.69,1.58-16.11,1.71,0-.56,0-1.12,0-1.67l4-.42,6.06,0C517.08,147.74,519.15,146.87,521,149.39Z" transform="translate(-460.97 -100)"/><path class="cls-30" d="M484.45,187a17,17,0,0,1-1.36,10.5C482.5,193.85,482.55,190.3,484.45,187Z" transform="translate(-460.97 -100)"/><path class="cls-21" d="M502.88,203.5c0,3.49-.21,6.93-2,10.06C500.88,210.08,501.09,206.63,502.88,203.5Z" transform="translate(-460.97 -100)"/><path class="cls-21" d="M500.9,227.66c1.78,3.14,2,6.59,2,10.08C501.1,234.6,500.88,231.16,500.9,227.66Z" transform="translate(-460.97 -100)"/><path class="cls-23" d="M718.48,157.15c19.63,10.11,22.46,18.22,13.28,37.88q-5.75,12.3-11.37,24.67c-4.93,10.75-11,20.28-20.51,28.08-13,10.68-23.08,24.23-32.08,38.49-3,4.79-5.11,10.27-9.76,13.93,9-23.13,24.93-41.16,42.88-57.55,4.83-4.41,8.85-9,11.53-14.94,5.95-13.14,11.92-26.27,18.12-39.3,4.29-9,3.77-16.61-4.72-23C723,163.18,720.92,159.92,718.48,157.15Z" transform="translate(-460.97 -100)"/><path class="cls-23" d="M672.14,153.12c15.8-2.72,31.58-5.15,46.34,4C703.29,152.94,687.75,152.67,672.14,153.12Z" transform="translate(-460.97 -100)"/><path class="cls-23" d="M619.76,324.38c-11.79.06-23.5-.25-34.26-6.05C597.05,319.64,609,318.75,619.76,324.38Z" transform="translate(-460.97 -100)"/><path class="cls-33" d="M521,149.39l-6-.34,12-13.71a9.33,9.33,0,0,1,1.9-.25l.45,1.55c3.72,7.07-4.34,8-6.31,12.1Z" transform="translate(-460.97 -100)"/><path class="cls-23" d="M646,318.33c-3.73,7.92-9.79,6.49-16.12,4C634.81,319.45,641.37,322.86,646,318.33Z" transform="translate(-460.97 -100)"/><path class="cls-34" d="M523,148.74l6.31-12.1,3.23,2.56C532.45,145.5,527.16,146.56,523,148.74Z" transform="translate(-460.97 -100)"/></svg>