<svg id="Layer_1" data-name="Layer 1" xmlns="http://www.w3.org/2000/svg" viewBox="0 0 107.53 87.01"><defs><style>.cls-1{fill:#9bb964;}.cls-2{fill:#9ab863;}.cls-3{fill:#56812e;}.cls-4{fill:#5b7535;}.cls-5{fill:#9ab861;}.cls-6{fill:#788649;}.cls-7{fill:#4d6c29;}.cls-8{fill:#55802d;}.cls-9{fill:#9bb965;}.cls-10{fill:#95b65d;}.cls-11{fill:#58822f;}</style></defs><path class="cls-1" d="M599,215.62c2.26.52,4.8,1.07,7.32,1.69,5.11,1.25,10.21,2.57,15.32,3.78,1.23.29,1.57.49.83,1.78-2.35,4.09-4.37,8.37-6.48,12.59a17.75,17.75,0,0,0-1.13,11.95c2.32,10.63.11,20.47-4.12,30.13-.46,1.07-.9,1-1.78.61q-11.7-5.89-23.43-11.73c-1-.49-1.07-1-.55-1.86.73-1.27,1.27-2.64,2-3.9,3-5.08,3.63-10.63,3.6-16.39,0-5.07-.34-10.15.37-15.21s3.14-9.14,6.37-12.89A1.76,1.76,0,0,1,599,215.62Zm20.36,7.72c0-.79-.68-.79-1.26-1-5.91-1.59-11.84-3.14-17.73-4.83a1.9,1.9,0,0,0-2.57,1,33.13,33.13,0,0,0-5.22,17.61c-.05,4.87,0,9.74-.43,14.6-.41,4.37-2.61,8.08-4.34,12-.4.92-.79,1.65.47,2.29,6.51,3.27,13,6.6,19.46,9.94.78.4,1.17.27,1.52-.53,3.67-8.26,5.67-16.68,4-25.85-.8-4.33-1.4-8.88.61-13.19,1.24-2.66,2.42-5.35,3.64-8C618.08,226,618.71,224.71,619.35,223.34Z" transform="translate(-584.66 -205.62)"/><path class="cls-2" d="M658.76,292.09c-1.4.35-1.83-.78-2.46-1.61-3.73-4.87-7.44-9.77-12.65-13.22a48.4,48.4,0,0,0-14.32-6c-3-.81-4.72-2.8-6-5.44-.41-.86-.23-1.31.7-1.65q11.07-4.08,22.12-8.2c.7-.26,1.5-.58,2,.26,1.92,3.4,5.45,4.37,8.69,5.69a136,136,0,0,1,14.6,6.46,73.41,73.41,0,0,1,11.37,8.07c3,2.47,5.79,5.12,8.7,7.67.58.5,1.13.91.1,1.43-4.56,2.31-8.89,5.07-13.67,6.93l-1.58-1.14c3.14-1.62,6.28-3.23,9.41-4.86,3.71-1.92,3.72-1.94.65-4.61-8.91-7.76-18.46-14.44-29.78-18.34-3.33-1.15-7-2-8.89-5.65-.43-.87-1.18-.37-1.76-.15q-9.15,3.5-18.3,7c-1.79.69-1.87,1.27-.66,2.71,1.76,2.07,4.21,2.73,6.66,3.41a38.5,38.5,0,0,1,12,5.26c5.65,4,9.85,9.32,13.93,14.78C659.43,291.4,658.76,291.49,658.76,292.09Z" transform="translate(-584.66 -205.62)"/><path class="cls-3" d="M665.6,242.19l-.81-.06-.42,0-1.13-.21c-1.57-2.27-1.8-2.31-3.29-.55l-3.19-.15c0-.39-.08-1,.11-1.14,1.45-.83,1.42-1.51,0-2.32-.26-.15-.31-.72-.4-1.11a3.17,3.17,0,0,0-3.14-2.57c-1.72-.18-3.19.21-4,1.94a13.07,13.07,0,0,0-1.42,3.71,4.14,4.14,0,0,1-2.41-.18c-.34-1.37-1.25-2.83.9-3.68.56-.23.11-.92,0-1.4s-.25-.94-.84-.38a.86.86,0,0,0-.84.29l-.79.49c-.8.48-.66,1.47-1.17,2.11-.57,0-1.07.13-1.11.79s.57.7,1.07.76h0a.67.67,0,0,1-.35.75l-1.12-.06-.83-.4c-3.22-4.11-4.53-8.93-5.4-14-1-5.79-1.18-11.82-4.73-16.93-1-1.4.43-1.14,1.1-1.12,5.46.11,10.93.3,16.39.4,4.21.08,6.5,1.85,7.42,6,.5,2.27.83,4.57,1.2,6.87.86,5.39,1.83,10.73,4.35,15.67C662,238.2,664,240,665.6,242.19Zm-7.73-8.07.25.5s.14-.11.13-.13c-.07-.17-.16-.32-.25-.49-2.34-6.49-3.09-13.33-4.36-20.06-.34-1.83-.69-3.36-3-3.35a2.91,2.91,0,0,1-2.06-1.15,1.66,1.66,0,0,0-1.35-.69c-3.54-.12-7.07-.29-10.6-.37-1.57,0-3.12,1.92-2.56,3.38,1.2,3.09,1.31,6.37,1.91,9.57a72.34,72.34,0,0,0,2.42,10.7c.25.71.48,1.83,1.6.87,2-1.74,4.49-2,6.95-2A20.65,20.65,0,0,1,657.87,234.12Z" transform="translate(-584.66 -205.62)"/><path class="cls-2" d="M665.6,242.19c-1.59-2.19-3.65-4-4.91-6.47-2.52-4.94-3.49-10.28-4.35-15.67-.37-2.3-.7-4.6-1.2-6.87-.92-4.17-3.21-5.94-7.42-6-5.46-.1-10.93-.29-16.39-.4-.67,0-2.06-.28-1.1,1.12C633.78,213,634,219,635,224.81c.87,5,2.18,9.86,5.4,14-3.27-1.33-4.36-4.3-5.26-7.28a78.68,78.68,0,0,1-2.41-12.94,21.93,21.93,0,0,0-4.45-11.37,17,17,0,0,1-1-1.5c4.2,0,8.25-.18,12.27.05a84.38,84.38,0,0,0,9.4.2c3.44-.18,5.35,1.72,6.79,4.31,1.69,3,2,6.47,2.54,9.82.43,2.56.85,5.12,1.32,7.67a4.69,4.69,0,0,0,.66,1.19c-.56,1-.06,1.88.51,2.71.36,1.17.38,2.51,1.64,3.22a2.7,2.7,0,0,0,1.52,2.45c.29,1.86,1.73,2.73,3.12,3.63l1,1.4A3.48,3.48,0,0,1,665.6,242.19Z" transform="translate(-584.66 -205.62)"/><path class="cls-4" d="M668.06,242.34l-1-1.4a2,2,0,0,1,1.68-.46,14.31,14.31,0,0,0,8-2.09c1.06-.66,1.69-1.1,1.36-2.53s-1.27-1.29-2.25-1.42-2.22-.39-3.33-.57c-3.93-.64-7.68-2.21-11.72-2.23-.57-.83-1.07-1.67-.51-2.71l23.64,4.78c.77.15,1.53.33,2.52.55a23.51,23.51,0,0,1-13.81,8.46A8.49,8.49,0,0,1,668.06,242.34Z" transform="translate(-584.66 -205.62)"/><path class="cls-5" d="M647.91,239.7a13.07,13.07,0,0,1,1.42-3.71c.8-1.73,2.27-2.12,4-1.94a3.17,3.17,0,0,1,3.14,2.57c.09.39.14,1,.4,1.11,1.43.81,1.46,1.49,0,2.32-.19.11-.08.75-.11,1.14a7.71,7.71,0,0,1-3.24-.63,5.31,5.31,0,0,0,.75-1.38c.23-1,.19-2.07-.93-2.56s-1.87.23-2.33,1.22c-.28.6-.52,1.22-.78,1.83-.66.28-1.43-.59-2,.21A.34.34,0,0,1,647.91,239.7Z" transform="translate(-584.66 -205.62)"/><path class="cls-6" d="M658.76,292.09c0-.6.67-.69.89-1.12a2.12,2.12,0,0,0,2-.81,3.26,3.26,0,0,0,2.6-.73c1.49-.94,2.93-2,4.4-2.94.92-.61,1.52-.7,2.41.41s1.7,3.07,3.69,3.28c.12,1,.69,1.31,1.61,1.2l1.58,1.14a19.09,19.09,0,0,1-4.34,0c0-.27,1-.31.21-.78s-1.55-.61-1.81-1.16c-1.87-3.87-4.12-1.68-6.23-.41-1.23.74-2.84.73-3.78,2Z" transform="translate(-584.66 -205.62)"/><path class="cls-7" d="M662,292.15c.94-1.27,2.55-1.26,3.78-2,2.11-1.27,4.36-3.46,6.23.41.26.55,1.2.77,1.81,1.16s-.17.51-.21.78l-.83-.06c-1.65-1.14-3.42-.24-5.13-.27l-.44,0c-.05-.32-.14-.62-.53-.66s-.66.25-.73.66Z" transform="translate(-584.66 -205.62)"/><path class="cls-8" d="M650.23,239.67c.26-.61.5-1.23.78-1.83.46-1,1.14-1.73,2.33-1.22s1.16,1.55.93,2.56a5.31,5.31,0,0,1-.75,1.38l-1.57,0-.79-.07-.46-.06Z" transform="translate(-584.66 -205.62)"/><path class="cls-2" d="M642.71,237c.51-.64.37-1.63,1.17-2.11.36,0,.69-.07.79-.49a.86.86,0,0,1,.84-.29.85.85,0,0,0,.84.38c.16.48.61,1.17,0,1.4-2.15.85-1.24,2.31-.9,3.68-.69.69-1.34,0-2-.05,0-.58-.12-1-.83-1h0C642.68,238,642.69,237.46,642.71,237Z" transform="translate(-584.66 -205.62)"/><path class="cls-9" d="M660,241.34c1.49-1.76,1.72-1.72,3.29.55A4.9,4.9,0,0,1,660,241.34Z" transform="translate(-584.66 -205.62)"/><path class="cls-6" d="M667.64,292.17c1.71,0,3.48-.87,5.13.27A15.79,15.79,0,0,1,667.64,292.17Z" transform="translate(-584.66 -205.62)"/><path class="cls-2" d="M650.23,239.67l.47.74c-.87,0-1.79.22-2.5-.53C648.8,239.08,649.57,240,650.23,239.67Z" transform="translate(-584.66 -205.62)"/><path class="cls-10" d="M642.66,238.49c.71,0,.85.4.83,1a1.36,1.36,0,0,1-1.18-.06v-.17A.67.67,0,0,0,642.66,238.49Z" transform="translate(-584.66 -205.62)"/><path class="cls-6" d="M665.94,292.14c.07-.41.25-.71.73-.66s.48.34.53.66Z" transform="translate(-584.66 -205.62)"/><path class="cls-2" d="M642.31,239.24v.17c-.41.13-.83.26-1.12-.23Z" transform="translate(-584.66 -205.62)"/><path class="cls-5" d="M651.16,240.47l.79.07A.48.48,0,0,1,651.16,240.47Z" transform="translate(-584.66 -205.62)"/><path class="cls-2" d="M664.37,242.1l.42,0Z" transform="translate(-584.66 -205.62)"/><path class="cls-8" d="M619.35,223.34c-.64,1.37-1.27,2.69-1.88,4-1.22,2.67-2.4,5.36-3.64,8-2,4.31-1.41,8.86-.61,13.19,1.7,9.17-.3,17.59-4,25.85-.35.8-.74.93-1.52.53-6.47-3.34-13-6.67-19.46-9.94-1.26-.64-.87-1.37-.47-2.29,1.73-3.89,3.93-7.6,4.34-12,.44-4.86.38-9.73.43-14.6a33.13,33.13,0,0,1,5.22-17.61,1.9,1.9,0,0,1,2.57-1c5.89,1.69,11.82,3.24,17.73,4.83C618.67,222.55,619.31,222.55,619.35,223.34Zm-25.57,23.79a26.79,26.79,0,0,1-1.43,9.41c-.82,2.31-2.72,4.46-1.08,7.27.39.67.49,1.3,1.33,1.67,3.65,1.6,7.27,3.3,10.89,5,1,.49,2.06,1.3,2.75-.49.23-.59,1-.63,1.61-.58.88.06,1.28-.37,1.59-1.17,2.1-5.41,3.34-11,2.74-16.81,0-.38.12-.89-.3-1.09-.6-.29-.81.33-1,.66-1.28,1.76-3,2.1-5.08,2C601.06,252.83,597.42,250.56,593.78,247.13Zm17-5.56a17.18,17.18,0,0,1,1.64-8c.91-2,1.78-4,2.66-6a3.42,3.42,0,0,0-2.09-4.74,83.3,83.3,0,0,1-8.81-2.54c-2.19-.91-3.61,1.11-5.51.79-.13,0-.37.36-.5.58a28.94,28.94,0,0,0-4,15.43c0,1.1.38,1,1.19.53a7.24,7.24,0,0,1,4.77-.82A19.74,19.74,0,0,1,610.79,241.57Zm-5.53,8.11c1,0,4-2.28,4.12-3.07.13-.94-1.79-4.78-2.65-5.27a3.3,3.3,0,0,0-4.44.84,24.6,24.6,0,0,0-1.61,2.53c-.37.61-.8,1.16-1.58.88s-1-1-1-1.8A2.08,2.08,0,0,1,599.2,242c.91-.56.95-1.86.17-2.09-1.92-.58-2.59,1.36-3.73,2.39-.51.46-1,.86-.38,1.43a4.44,4.44,0,0,1,1,2.1,3.29,3.29,0,0,0,3.06,2.2,2.8,2.8,0,0,0,2.92-1.69,8.39,8.39,0,0,1,1.57-2.53,1.33,1.33,0,0,1,2.35.81c.17,1.19,0,2.38-1.43,2.65-1.06.19-1.08.84-1,1.6C603.88,249.86,604.69,249.61,605.26,249.68Z" transform="translate(-584.66 -205.62)"/><path class="cls-3" d="M676.36,291.38c-.92.11-1.49-.23-1.6-1.2l5.47-2.87c1.5-.8,3.59-1.08,3.1-3.61a.93.93,0,0,1,.36-.69c.88-.7.42-1.11-.22-1.66a132.66,132.66,0,0,0-14.2-10.64c-1.21-.78-1.78-.63-2.06.76a7.82,7.82,0,0,1-3.38,4.76c-3.21,2.38-6.71,4-11.35,3.5a99.28,99.28,0,0,1,9.17,10.43,2.12,2.12,0,0,1-2,.81c-4.08-5.46-8.28-10.82-13.93-14.78a38.5,38.5,0,0,0-12-5.26c-2.45-.68-4.9-1.34-6.66-3.41-1.21-1.44-1.13-2,.66-2.71q9.15-3.56,18.3-7c.58-.22,1.33-.72,1.76.15,1.84,3.65,5.56,4.5,8.89,5.65,11.32,3.9,20.87,10.58,29.78,18.34,3.07,2.67,3.06,2.69-.65,4.61C682.64,288.15,679.5,289.76,676.36,291.38ZM659.2,266.06c-3.86-1.67-7.43-2.69-10.55-4.94a5.57,5.57,0,0,0-4.76-.94c-4.38,1.59-8.75,3.24-13.15,4.81-1,.37-.81,1.68-1.75,2.06a2.94,2.94,0,0,0,1.46,1.21,17.26,17.26,0,0,0,3.9,1.52,46.59,46.59,0,0,1,10.57,4.66c.44.25,1.31,1.09,1.34-.33,0-2,1.32-3.07,2.75-4.14A20.79,20.79,0,0,1,659.2,266.06Zm-.09,2.08a5.23,5.23,0,0,0-1.19,0c-1.29.31-2.84.47-3.39,1.82s1,1.81,1.68,2.66c.31.41.94.7.72,1.32a1.73,1.73,0,0,1-1.46.92,2.52,2.52,0,0,1-3-2.64c.14-.87-.25-1.54-.87-1.43A1.92,1.92,0,0,0,650,273c.3,1.2-.5,3.22,1.25,3.48A22.74,22.74,0,0,0,656,277c1.58-.11,3.17-.34,3.84-2s-.77-2.19-1.75-3a3.17,3.17,0,0,1-.77-.9.84.84,0,0,1,.38-1.19,2.92,2.92,0,0,1,4.26,1.81c.15.82.57,1.63,1.33,1.4a1.77,1.77,0,0,0,1-2.32c-.41-.9.19-2.83-1.49-2.56C661.5,268.51,660.36,267.82,659.11,268.14Z" transform="translate(-584.66 -205.62)"/><path class="cls-5" d="M657.87,234.12a20.65,20.65,0,0,0-11-3.2c-2.46,0-4.92.24-6.95,2-1.12,1-1.35-.16-1.6-.87a72.34,72.34,0,0,1-2.42-10.7c-.6-3.2-.71-6.48-1.91-9.57-.56-1.46,1-3.42,2.56-3.38,3.53.08,7.06.25,10.6.37a1.66,1.66,0,0,1,1.35.69,2.91,2.91,0,0,0,2.06,1.15c2.36,0,2.71,1.52,3,3.35,1.27,6.73,2,13.57,4.36,20.06ZM644.69,221.2c1-.38,2.65-.24,2.72-1.91s-1.37-2-2.67-2-3,.2-3,1.87C641.74,220.52,643.2,221,644.69,221.2Z" transform="translate(-584.66 -205.62)"/><path class="cls-10" d="M642.71,237c0,.51,0,1,0,1.55-.5-.06-1.13,0-1.07-.76S642.14,236.93,642.71,237Z" transform="translate(-584.66 -205.62)"/><path class="cls-10" d="M646.35,234.44a.85.85,0,0,1-.84-.38C646.1,233.5,646.26,233.9,646.35,234.44Z" transform="translate(-584.66 -205.62)"/><path class="cls-5" d="M658,234c.09.17.18.32.25.49,0,0-.09.09-.13.13-.09-.17-.17-.34-.25-.5Z" transform="translate(-584.66 -205.62)"/><path class="cls-10" d="M644.67,234.35c-.1.42-.43.49-.79.49Z" transform="translate(-584.66 -205.62)"/><path class="cls-6" d="M660.76,231.64c4,0,7.79,1.59,11.72,2.23,1.11.18,2.21.42,3.33.57s1.92,0,2.25,1.42-.3,1.87-1.36,2.53a14.31,14.31,0,0,1-8,2.09,2,2,0,0,0-1.68.46c-1.39-.9-2.83-1.77-3.12-3.63.85.12,1.7.29,2.56.34s1.6.16,1.79-.82-.56-1.27-1.22-1.62c-1.5-.81-3.07-.57-4.65-.35C661.14,234.15,661.12,232.81,660.76,231.64Z" transform="translate(-584.66 -205.62)"/><path class="cls-7" d="M662.4,234.86c1.58-.22,3.15-.46,4.65.35.66.35,1.39.74,1.22,1.62s-1.08.87-1.79.82-1.71-.22-2.56-.34A2.7,2.7,0,0,1,662.4,234.86Z" transform="translate(-584.66 -205.62)"/><path class="cls-5" d="M661.65,290.16a99.28,99.28,0,0,0-9.17-10.43c4.64.46,8.14-1.12,11.35-3.5a7.82,7.82,0,0,0,3.38-4.76c.28-1.39.85-1.54,2.06-.76a132.66,132.66,0,0,1,14.2,10.64c.64.55,1.1,1,.22,1.66a.93.93,0,0,0-.36.69c.49,2.53-1.6,2.81-3.1,3.61l-5.47,2.87c-2-.21-2.69-2-3.7-3.28s-1.49-1-2.41-.41c-1.47,1-2.91,2-4.4,2.94A3.26,3.26,0,0,1,661.65,290.16Zm9.91-5.18a2.57,2.57,0,0,0,2.44-2.56c.06-1.33-.93-1.76-2-1.74a2.42,2.42,0,0,0-2.42,2.44C669.49,284.35,670.28,284.9,671.56,285Z" transform="translate(-584.66 -205.62)"/><path class="cls-5" d="M593.78,247.13c3.64,3.43,7.28,5.7,12,5.88,2,.07,3.8-.27,5.08-2,.24-.33.45-.95,1-.66.42.2.26.71.3,1.09.6,5.85-.64,11.4-2.74,16.81-.31.8-.71,1.23-1.59,1.17-.62-.05-1.38,0-1.61.58-.69,1.79-1.7,1-2.75.49-3.62-1.68-7.24-3.38-10.89-5-.84-.37-.94-1-1.33-1.67-1.64-2.81.26-5,1.08-7.27A26.79,26.79,0,0,0,593.78,247.13Zm7.61,15.46a1.42,1.42,0,0,0-1.6-1.5,1.54,1.54,0,0,0-1.62,1.64,1.65,1.65,0,0,0,1.71,1.77C601,264.56,601.41,263.92,601.39,262.59Z" transform="translate(-584.66 -205.62)"/><path class="cls-5" d="M610.79,241.57a19.74,19.74,0,0,0-10.69-4.83,7.24,7.24,0,0,0-4.77.82c-.81.48-1.17.57-1.19-.53a28.94,28.94,0,0,1,4-15.43c.13-.22.37-.6.5-.58,1.9.32,3.32-1.7,5.51-.79a83.3,83.3,0,0,0,8.81,2.54,3.42,3.42,0,0,1,2.09,4.74c-.88,2-1.75,4-2.66,6A17.18,17.18,0,0,0,610.79,241.57Zm-4.85-15.14c-1.13-.05-1.78.36-1.74,1.46a1.62,1.62,0,0,0,1.73,1.74,1.29,1.29,0,0,0,1.48-1.44C607.44,227.11,607.05,226.4,605.94,226.43Z" transform="translate(-584.66 -205.62)"/><path class="cls-10" d="M605.26,249.68c-.57-.07-1.38.18-1.5-.81-.09-.76-.07-1.41,1-1.6,1.45-.27,1.6-1.46,1.43-2.65a1.33,1.33,0,0,0-2.35-.81,8.39,8.39,0,0,0-1.57,2.53,2.8,2.8,0,0,1-2.92,1.69,3.29,3.29,0,0,1-3.06-2.2,4.44,4.44,0,0,0-1-2.1c-.59-.57-.13-1,.38-1.43,1.14-1,1.81-3,3.73-2.39.78.23.74,1.53-.17,2.09a2.08,2.08,0,0,0-1.05,1.79c0,.78.13,1.52,1,1.8s1.21-.27,1.58-.88a24.6,24.6,0,0,1,1.61-2.53,3.3,3.3,0,0,1,4.44-.84c.86.49,2.78,4.33,2.65,5.27C609.26,247.4,606.27,249.66,605.26,249.68Z" transform="translate(-584.66 -205.62)"/><path class="cls-5" d="M659.2,266.06A20.79,20.79,0,0,0,649,270c-1.43,1.07-2.71,2.13-2.75,4.14,0,1.42-.9.58-1.34.33a46.59,46.59,0,0,0-10.57-4.66,17.26,17.26,0,0,1-3.9-1.52,2.94,2.94,0,0,1-1.46-1.21c.94-.38.71-1.69,1.75-2.06,4.4-1.57,8.77-3.22,13.15-4.81a5.57,5.57,0,0,1,4.76.94C651.77,263.37,655.34,264.39,659.2,266.06Zm-14.83-1.91a2.16,2.16,0,0,0-2,1.92c-.08.87.65,1.21,1.34,1.08,1-.18,2.19-.46,2.21-1.87C645.91,264.41,645.29,264.17,644.37,264.15Z" transform="translate(-584.66 -205.62)"/><path class="cls-10" d="M659.11,268.14c1.25-.32,2.39.37,3.72.15,1.68-.27,1.08,1.66,1.49,2.56a1.77,1.77,0,0,1-1,2.32c-.76.23-1.18-.58-1.33-1.4a2.92,2.92,0,0,0-4.26-1.81.84.84,0,0,0-.38,1.19,3.17,3.17,0,0,0,.77.9c1,.78,2.39,1.38,1.75,3s-2.26,1.88-3.84,2a22.74,22.74,0,0,1-4.74-.55c-1.75-.26-1-2.28-1.25-3.48a1.92,1.92,0,0,1,1.64-2.17c.62-.11,1,.56.87,1.43a2.52,2.52,0,0,0,3,2.64,1.73,1.73,0,0,0,1.46-.92c.22-.62-.41-.91-.72-1.32-.65-.85-2.21-1.32-1.68-2.66s2.1-1.51,3.39-1.82A5.23,5.23,0,0,1,659.11,268.14Z" transform="translate(-584.66 -205.62)"/><path class="cls-3" d="M644.69,221.2c-1.49-.2-3-.68-3-2.06,0-1.67,1.67-1.89,3-1.87s2.74.4,2.67,2S645.69,220.82,644.69,221.2Z" transform="translate(-584.66 -205.62)"/><path class="cls-3" d="M671.56,285c-1.28-.08-2.07-.63-1.95-1.86a2.42,2.42,0,0,1,2.42-2.44c1,0,2,.41,2,1.74A2.57,2.57,0,0,1,671.56,285Z" transform="translate(-584.66 -205.62)"/><path class="cls-11" d="M601.39,262.59c0,1.33-.4,2-1.51,1.91a1.65,1.65,0,0,1-1.71-1.77,1.54,1.54,0,0,1,1.62-1.64A1.42,1.42,0,0,1,601.39,262.59Z" transform="translate(-584.66 -205.62)"/><path class="cls-3" d="M605.94,226.43c1.11,0,1.5.68,1.47,1.76a1.29,1.29,0,0,1-1.48,1.44,1.62,1.62,0,0,1-1.73-1.74C604.16,226.79,604.81,226.38,605.94,226.43Z" transform="translate(-584.66 -205.62)"/><path class="cls-3" d="M644.37,264.15c.92,0,1.54.26,1.52,1.13,0,1.41-1.17,1.69-2.21,1.87-.69.13-1.42-.21-1.34-1.08A2.16,2.16,0,0,1,644.37,264.15Z" transform="translate(-584.66 -205.62)"/></svg>