<svg id="Layer_1" data-name="Layer 1" xmlns="http://www.w3.org/2000/svg" viewBox="0 0 336.13 93.12"><defs><style>.cls-1{font-size:81.25px;font-family:MontserratAlternates-Bold, Montserrat Alternates;font-weight:700;letter-spacing:-0.02em;}.cls-1,.cls-3{fill:#fff;}.cls-2{letter-spacing:0em;}</style></defs><text class="cls-1" transform="translate(92.96 71.51)">K<tspan class="cls-2" x="58.09" y="0">OSA</tspan></text><path class="cls-3" d="M-358.21,231.78c1.08.79,2.74,1.63,2.52,2.84s-2.14,1.33-3.37,1.75a34.27,34.27,0,0,1-23,0c-2.25-.79-2.67-.39-2.64,1.87.07,4.42,0,4.58,4.48,4.45,2.33-.07,2.81.74,2.79,2.89,0,5.89.05,5.89-5.83,5.89-8.73,0-17.46-.08-26.18.06-2.17,0-2.89-.63-2.58-2.67a6.05,6.05,0,0,0,0-1.7c-.52-3.32.43-5.18,4.2-4.41,2.17.44,3.2-.68,4-2.59,1.66-3.86,3.41-7.69,5.43-11.36a3.63,3.63,0,0,0-.31-4.62c-7.56-10.41-8.94-21.72-4.57-33.8.71-2,1.32-3.11,3.15-.8,1.32,1.66,2.91,3.12,4.38,4.68a1.78,1.78,0,0,1-1.49,2.45c-1.49-.1-2.25-1.32-3.25-2.2-6.08,21,9.95,39.8,28.84,39.79a56.33,56.33,0,0,0,9.45-.69C-360.28,234.22-359.95,231.48-358.21,231.78Z" transform="translate(412.13 -179.63)"/><path class="cls-3" d="M-397.14,196.4l1.44-2.11c4.83,4.74,9.73,9.43,14.46,14.27,1.37,1.4,2.14,1.46,3.38,0,1.66-2,3.93-3.21,2.85-6.78-1-3.34,2.84-6.78,6.44-6.63a6.49,6.49,0,0,1,6.1,6.83,6.49,6.49,0,0,1-7.38,5.8c-2.15-.36-6.52,2.11-7.2,4-.43,1.22.71,1.54,1.26,2.11,5.83,6,11.71,11.92,17.58,17.87-1.25.83-1.27,3.3-3.58,2.69.14-1.6-1.07-2.38-2-3.33q-15.46-15.46-30.91-30.94C-395.76,199.14-397.37,198.33-397.14,196.4Z" transform="translate(412.13 -179.63)"/><path class="cls-3" d="M-347,198.05c.37,1.12-.39,1.32-1.21,1.55-1.28.37-1.54-.45-1.77-1.4q-3.17-12.51-15.68-15.6l-.33-.08c-1-.22-1.16-.9-.94-1.79s.55-1.19,1.63-1.09C-357.54,180.36-347.25,190.62-347,198.05Z" transform="translate(412.13 -179.63)"/><path class="cls-3" d="M-357,198.31c-.94-.08-1-.82-1.2-1.45a8.69,8.69,0,0,0-5.7-5.84c-1.32-.45-2-.94-1.5-2.38.6-1.71,1.75-.62,2.49-.36a12,12,0,0,1,7.62,8.06C-354.7,198.29-356.11,198-357,198.31Z" transform="translate(412.13 -179.63)"/><path class="cls-3" d="M-385.78,242a11.09,11.09,0,0,1-.12-5.46A11.34,11.34,0,0,1-385.78,242Z" transform="translate(412.13 -179.63)"/><path class="cls-3" d="M-410.41,247.61a3.25,3.25,0,0,1,.08-3A3.22,3.22,0,0,1-410.41,247.61Z" transform="translate(412.13 -179.63)"/></svg>