<?xml version="1.0" encoding="utf-8"?>
<!-- Generator: Adobe Illustrator 25.2.0, SVG Export Plug-In . SVG Version: 6.00 Build 0)  -->
<svg version="1.1" id="Layer_1" xmlns="http://www.w3.org/2000/svg" xmlns:xlink="http://www.w3.org/1999/xlink" x="0px" y="0px"
	 viewBox="0 0 661.4 392.7" style="enable-background:new 0 0 661.4 392.7;" xml:space="preserve">
<style type="text/css">
	.st0{fill:#FFFFFF;}
</style>
<path class="st0" d="M622.9,357.3c-0.6,0-1.2-0.4-1.5-1c-4.9-11.8-10.9-23.1-18.1-33.7c-0.5-0.7-0.4-1.7,0.3-2.3
	c0.7-0.5,1.7-0.4,2.3,0.3c0,0,0.1,0.1,0.1,0.1c7.3,10.8,13.5,22.3,18.4,34.3c0.3,0.8,0,1.8-0.9,2.1c0,0,0,0,0,0
	C623.3,357.2,623.1,357.3,622.9,357.3z M392.1,297.1c-0.9,0-1.6-0.6-1.7-1.5c0-0.9,0.6-1.6,1.5-1.7c10.5-1.1,22.7-4.2,37.5-8.2
	c0.8-0.3,1.8,0.2,2.1,1c0.3,0.8-0.2,1.8-1,2.1c-0.1,0-0.1,0-0.2,0.1c-15,4-27.3,7.2-38,8.3L392.1,297.1z M578.4,295.2
	c-0.3,0-0.7-0.1-1-0.3c-10.1-7.7-21.6-13.4-33.9-16.7c-0.9-0.2-1.4-1.1-1.1-2c0.2-0.9,1.1-1.4,2-1.1c12.7,3.4,24.6,9.3,35,17.2
	c0.7,0.6,0.8,1.6,0.3,2.3C579.3,295,578.9,295.2,578.4,295.2L578.4,295.2z M360.5,281.8c-0.7,0-1.3-0.5-1.5-1.1
	c-1.4-4.9-2-10-1.9-15.2c0.1-8,1-16,2.5-23.9c0.2-0.9,1-1.5,1.9-1.3c0.9,0.2,1.5,1,1.3,1.9c-1.5,7.7-2.4,15.5-2.5,23.3
	c-0.1,4.8,0.5,9.6,1.8,14.2c0.3,0.9-0.2,1.8-1.1,2C360.9,281.8,360.7,281.8,360.5,281.8L360.5,281.8z M467.3,279.5
	c-0.9,0-1.6-0.7-1.6-1.6c0-0.8,0.5-1.5,1.3-1.6c12.7-2.8,25.6-4.6,38.6-5.2c0.9,0,1.6,0.7,1.7,1.5c0,0.9-0.6,1.6-1.5,1.7
	c0,0,0,0,0,0c-12.8,0.6-25.5,2.3-38,5.1C467.5,279.5,467.4,279.5,467.3,279.5L467.3,279.5z M370.6,206c-0.2,0-0.3,0-0.5-0.1
	c-0.9-0.2-1.3-1.1-1.1-2c0,0,0,0,0,0c1.1-3.6,2.2-7.2,3.4-11c2.8-8.6,5-17.3,6.7-26.1c0.2-0.9,1-1.4,1.9-1.3c0.9,0.2,1.4,1,1.3,1.9
	l0,0c-1.7,9-4,17.8-6.8,26.5c-1.2,3.8-2.3,7.4-3.4,11C371.9,205.6,371.3,206.1,370.6,206z M383.3,130.3c-0.8,0-1.5-0.6-1.6-1.5
	c-0.8-12.7-4-25.1-9.4-36.6c-0.5-0.7-0.3-1.7,0.5-2.2c0.7-0.5,1.7-0.3,2.2,0.5c0.1,0.1,0.1,0.3,0.2,0.4c5.5,11.9,8.8,24.7,9.6,37.7
	C384.9,129.5,384.2,130.3,383.3,130.3L383.3,130.3z M350.9,62.4c-0.4,0-0.8-0.2-1.1-0.4c-9.5-8.5-20.1-15.7-31.5-21.4
	c-0.8-0.4-1.1-1.4-0.7-2.2c0.4-0.8,1.4-1.1,2.2-0.7c11.7,5.8,22.5,13.2,32.2,21.9c0.6,0.6,0.7,1.6,0.1,2.3
	C351.8,62.2,351.3,62.4,350.9,62.4z M283.1,26.7c-0.2,0-0.3,0-0.5-0.1c-12.3-3.6-24.9-6.6-37.5-8.7c-0.9-0.2-1.5-1-1.3-1.9
	c0,0,0,0,0,0c0.1-0.9,0.9-1.5,1.8-1.3c0,0,0,0,0.1,0c12.8,2.2,25.4,5.1,37.8,8.8c0.9,0.3,1.3,1.2,1,2
	C284.3,26.2,283.7,26.7,283.1,26.7L283.1,26.7z M14.2,21.1c-0.9,0-1.6-0.8-1.6-1.6c0-0.8,0.6-1.4,1.3-1.6c0.2,0,15.1-2.6,38.5-5.1
	c0.9-0.2,1.7,0.4,1.9,1.3c0.2,0.9-0.4,1.7-1.3,1.9c-0.1,0-0.2,0-0.2,0C29.5,18.5,14.6,21,14.5,21L14.2,21.1z M207.1,12.9h-0.1
	c-12.2-1.1-25.2-1.8-38.5-2.2c-0.9,0-1.6-0.8-1.6-1.7c0-0.9,0.7-1.6,1.6-1.6c0,0,0,0,0.1,0c13.4,0.3,26.4,1.1,38.7,2.2
	c0.9,0.1,1.5,0.9,1.4,1.8C208.6,12.3,207.9,12.9,207.1,12.9L207.1,12.9z M91.1,12.5c-0.9,0-1.6-0.8-1.6-1.7c0-0.8,0.6-1.5,1.4-1.5
	c13.1-0.9,26.2-1.5,38.7-1.8c0.9,0,1.6,0.7,1.7,1.6c0,0.9-0.7,1.6-1.6,1.7c-12.5,0.3-25.5,0.9-38.6,1.8L91.1,12.5z"/>
<path class="st0" d="M604.5,368.9l2.7-5l0,0c12.7,6.9,28.6,2.2,35.5-10.5c0.3-0.6,0.6-1.1,0.8-1.7l0,0l5.2,2.4l-14.2,31.2
	L604.5,368.9z"/>
</svg>
