<?xml version="1.0" encoding="utf-8"?>
<!-- Generator: Adobe Illustrator 25.2.0, SVG Export Plug-In . SVG Version: 6.00 Build 0)  -->
<svg version="1.1" id="Layer_1" xmlns="http://www.w3.org/2000/svg" xmlns:xlink="http://www.w3.org/1999/xlink" x="0px" y="0px"
	 viewBox="0 0 229.9 201" style="enable-background:new 0 0 229.9 201;" xml:space="preserve">
<style type="text/css">
	.st0{fill:#FFFFFF;}
</style>
<path class="st0" d="M229.7,39.4c-3.2,15.5-6.5,31-9.8,46.5c-2.5,11.8-5,23.5-7.4,35.3c-1.4,6.6-6.2,10.6-12.9,10.6h-124
	c0.7,3.2,1.3,6.2,1.9,9.2c0.1,0.3,0.5,0.6,0.9,0.7c0.5,0.1,1,0.1,1.5,0h117.4c4.5,0,7.7,2.4,8.7,6.4c0.1,0.4,0.2,0.9,0.2,1.4
	c0.3,4.5-3.2,8.4-7.7,8.6H75.6c-7.6,0-12-3.7-13.6-11.1c-8.1-38.3-16.2-76.5-24.3-114.8c-1-4.8-2.1-9.5-3-14.3
	c-0.2-1.1-0.7-1.4-1.7-1.4H8.1c-3.7,0-6.8-2.5-7.8-6C-0.7,6.8,0.8,3,4,1.2C5.3,0.5,6.8,0.1,8.2,0c9.8-0.1,19.7-0.1,29.5,0
	c5.8,0,10.8,4.1,12,9.8c1.1,5.1,2.2,10.2,3.2,15.3c0.2,1,0.6,1.4,1.5,1.2c0.3,0,0.7,0,1,0h162.4c3.1,0,5.9,0.6,8.3,2.6
	C229.2,31.5,230.6,35.5,229.7,39.4z"/>
<path class="st0" d="M194.7,184.5c0,9.1-7.4,16.4-16.5,16.4c-9.1,0-16.4-7.4-16.4-16.4c0-9.1,7.4-16.4,16.5-16.4
	C187.3,168.1,194.6,175.5,194.7,184.5z"/>
<path class="st0" d="M107.2,184.5c0,9.1-7.3,16.5-16.4,16.5c-9.1,0-16.4-7.3-16.5-16.4c0,0,0,0,0-0.1c0-9.1,7.3-16.5,16.4-16.5
	c0,0,0,0,0,0C99.8,168,107.2,175.4,107.2,184.5C107.2,184.5,107.2,184.5,107.2,184.5z"/>
</svg>
