<svg id="Layer_1" data-name="Layer 1" xmlns="http://www.w3.org/2000/svg" viewBox="0 0 278.3 317.29"><defs><style>.cls-1{fill:#fff;}</style></defs><path class="cls-1" d="M728.73,264.39c13.77,0,27.18,0,40.59,0,7.53,0,15.07-.21,22.59.16,18,.88,31.85,16.89,30.11,34.44-1.72,17.24-15.11,29.42-32.77,29.54-19,.12-38,0-57,0H596.09c-7.43,0-14.87.17-22.29-.17-15.8-.73-28.67-12.92-29.82-27.9-1.34-17.43,9-32,25.24-35.32a41,41,0,0,1,8-.75q28.17-.07,56.34,0c2.25,0,3.11-.57,3.67-2.89a46.55,46.55,0,0,1,45.31-36.06c21.16-.16,39.75,14.36,45.28,35.37C728.09,262,728.37,263,728.73,264.39Zm-46.05,15v0H632.54c-18.68,0-37.35-.08-56,0a16.66,16.66,0,0,0-16.31,20.64c1.92,7.76,8.68,12.64,17.63,12.64l165.29,0c15.17,0,30.34.07,45.5,0,7,0,12.31-3.16,15.54-9.43,3-5.72,2.71-11.38-1-16.69-3.59-5.16-8.75-7.19-14.95-7.19Q735.46,279.46,682.68,279.42ZM652.9,264.15h58.7c-2.51-13-15.07-22.81-28.85-22.72C668.52,241.52,655.08,251.6,652.9,264.15Z" transform="translate(-543.86 -225.49)"/><path class="cls-1" d="M571.57,426.29V355.37c0-1.13,0-2.27,0-3.4.34-4.85,3.29-7.62,8-7.56s7.7,3.09,7.75,7.84c.09,8.36,0,16.72,0,25.08q0,58.85,0,117.68c0,15.78,10,28.17,25.26,31.12a52.32,52.32,0,0,0,9.87.58q61.77,0,123.55,0c18.12,0,31.49-13.33,31.51-31.48q.1-70,.06-140a32.83,32.83,0,0,1,.09-3.71c.52-4.62,3.53-7.23,8.13-7.12s7.45,3.05,7.71,7.62c0,.82,0,1.65,0,2.48q0,70,0,140c0,24.91-17.42,44.89-42.12,47.82-6.62.78-13.4.31-20.11.31q-55.89,0-111.78,0c-27.81-.07-48-20.33-48-48.2-.07-22.71,0-45.41,0-68.12Z" transform="translate(-543.86 -225.49)"/><path class="cls-1" d="M635,429.4c0,21.57,0,43.14-.06,64.71a12.44,12.44,0,0,1-1.44,5.85,7.81,7.81,0,0,1-8.84,3.53c-3.29-.85-5.4-3.47-5.53-7.35-.16-4.64-.09-9.29-.09-13.93q0-58.21,0-116.42a28.92,28.92,0,0,1,.07-3.09c.5-4.59,3.53-7.23,8.12-7.14s7.54,3,7.69,7.57c.14,4.44.06,8.88.06,13.32q0,26.48,0,52.95Z" transform="translate(-543.86 -225.49)"/><path class="cls-1" d="M674.62,429.68q0-32.82,0-65.65c0-4.8,2.39-7.8,6.51-8.41,5.22-.76,9,2.14,9.27,7.4.22,4.33.13,8.67.13,13q0,58.68-.07,117.36a15.46,15.46,0,0,1-.78,5.44,8,8,0,0,1-9.1,4.75c-3.68-.73-5.94-3.6-6-7.93q0-30,0-60.08v-5.88Z" transform="translate(-543.86 -225.49)"/><path class="cls-1" d="M746,429.28q0,32.67,0,65.34c0,5.7-3.81,9.51-9,9.08a7.07,7.07,0,0,1-6.63-5.91,15.8,15.8,0,0,1-.28-3.07q0-65,0-130.07c0-5.91,2.75-9,7.76-9.12s8.06,2.93,8.1,8.1c.07,8.46,0,16.92,0,25.39Z" transform="translate(-543.86 -225.49)"/></svg>