<?xml version="1.0" encoding="utf-8"?>
<!-- Generator: Adobe Illustrator 25.2.0, SVG Export Plug-In . SVG Version: 6.00 Build 0)  -->
<svg version="1.1" id="Layer_1" xmlns="http://www.w3.org/2000/svg" xmlns:xlink="http://www.w3.org/1999/xlink" x="0px" y="0px"
	 viewBox="0 0 78 103" style="enable-background:new 0 0 78 103;" xml:space="preserve">
<style type="text/css">
	.st0{fill:#FFFFFF;}
</style>
<path class="st0" d="M4,0h16c2.2,0,4,1.8,4,4v95c0,2.2-1.8,4-4,4H4c-2.2,0-4-1.8-4-4V4C0,1.8,1.8,0,4,0z"/>
<path class="st0" d="M58,0h16c2.2,0,4,1.8,4,4v95c0,2.2-1.8,4-4,4H58c-2.2,0-4-1.8-4-4V4C54,1.8,55.8,0,58,0z"/>
</svg>
