<svg id="Layer_1" data-name="Layer 1" xmlns="http://www.w3.org/2000/svg" viewBox="0 0 47.5 47.5"><defs><style>.cls-1{opacity:0.77;}.cls-2{fill:none;stroke:#fff;stroke-miterlimit:10;stroke-width:2px;}.cls-3{fill:#fff;}</style></defs><g class="cls-1"><path class="cls-2" d="M25.59,1.07A22.75,22.75,0,1,0,46.42,21.9,22.75,22.75,0,0,0,25.59,1.07Z" transform="translate(0.01 0.01)"/><path class="cls-3" d="M32.53,24.73a2.18,2.18,0,0,1-.81.84L22.1,31.52l-.54.34a2.06,2.06,0,0,1-3.13-1.43,2.48,2.48,0,0,1,0-.38V17.4a1.94,1.94,0,0,1,1-1.81,2,2,0,0,1,2.09.06L31.67,22A2.09,2.09,0,0,1,32.53,24.73Z" transform="translate(0.01 0.01)"/></g></svg>