<svg id="Layer_1" data-name="Layer 1" xmlns="http://www.w3.org/2000/svg" viewBox="0 0 91.01 91.2"><defs><style>.cls-1{fill:#fff;}</style></defs><path class="cls-1" d="M748,430.66c-4.28,0-8.56,0-12.84,0-5.16,0-7.13-1.93-7.15-7,0-8.95,0-17.91-.06-26.86,0-2.06.36-3,2.7-2.91,4.54.17,9.08.14,13.62,0,2-.05,2.74.52,2.66,2.6-.14,4.15,0,8.31-.08,12.45-.06,2,.53,2.77,2.61,2.7,4.15-.14,8.31.06,12.45-.1,2.25-.08,2.91.7,2.83,2.9-.15,4.4-.17,8.83,0,13.23.11,2.48-.81,3.09-3.13,3C757.13,430.55,752.59,430.66,748,430.66Z" transform="translate(-727.99 -339.52)"/><path class="cls-1" d="M819,410.5c0,4.67.07,9.34,0,14-.08,3.91-2.1,6.06-6,6.11-9.47.12-18.94,0-28.41.07-1.7,0-2.29-.6-2.27-2.27.07-4.8.11-9.6,0-14.4,0-1.92.68-2.48,2.49-2.43,3.89.09,7.8-.2,11.67.11,3.27.27,3.92-1.06,3.74-3.95-.23-3.62,0-7.27-.09-10.9-.08-2.06.33-3,2.71-2.94,4.53.18,9.08.14,13.62,0,2-.06,2.72.46,2.65,2.57C818.83,401.16,819,405.83,819,410.5Z" transform="translate(-727.99 -339.52)"/><path class="cls-1" d="M798.85,339.57c4.54,0,9.08-.05,13.63,0,4.33.07,6.42,2.13,6.45,6.47.06,9.21,0,18.43.06,27.64,0,2.06-.6,2.66-2.63,2.6-4.54-.14-9.09-.17-13.63,0-2.37.1-2.79-.85-2.71-2.94.14-4-.07-8,.08-12.06.08-2.17-.55-3-2.81-2.88-4.15.17-8.31-.05-12.45.08-2.08.07-2.68-.69-2.63-2.69q.18-6.81,0-13.63c-.06-2,.54-2.72,2.63-2.65C789.5,339.67,794.18,339.57,798.85,339.57Z" transform="translate(-727.99 -339.52)"/><path class="cls-1" d="M728,359.43c0-4.54-.07-9.08,0-13.62.08-4.09,2.18-6.19,6.31-6.22,9.21-.07,18.43,0,27.64,0,1.88,0,2.85.3,2.78,2.5-.14,4.66-.12,9.34,0,14,0,1.89-.63,2.5-2.47,2.45-3.89-.11-7.81.19-11.68-.11-3.23-.26-3.93,1-3.75,3.93.23,3.75,0,7.53.1,11.29.07,2-.44,2.76-2.57,2.69-4.67-.16-9.35-.15-14,0-1.94.06-2.42-.62-2.38-2.44.1-4.8,0-9.6,0-14.41Z" transform="translate(-727.99 -339.52)"/></svg>