<svg id="Layer_1" data-name="Layer 1" xmlns="http://www.w3.org/2000/svg" viewBox="0 0 91.04 91.1"><defs><style>.cls-1{fill:#fdfdfd;}</style></defs><path class="cls-1" d="M88.07,54.41c-4.53.11-9.07,0-13.6,0s-9.08-.06-13.61,0c-4.37.07-6.47,2.09-6.5,6.41-.08,9.2,0,18.4-.07,27.6,0,2,.59,2.71,2.64,2.65,4.53-.12,9.07-.16,13.6,0,2.42.1,2.77-1,2.71-3-.11-4,.09-8-.07-12-.09-2.25.7-2.9,2.88-2.81,4,.17,8,0,12,.1,2.08.07,3-.4,2.92-2.72-.17-4.53-.2-9.08,0-13.6C91.13,54.65,90.09,54.35,88.07,54.41Z" transform="translate(0.02 -0.05)"/><path class="cls-1" d="M91,20.6c.08-2.3-.76-2.83-2.88-2.75-3.88.15-7.78-.11-11.65.1-2.54.14-3.46-.57-3.33-3.19.2-4,0-8,.09-12,.06-2-.53-2.7-2.6-2.64C66.12.22,61.57.24,57,.06,54.72,0,54.26.85,54.28,3c.11,9.07,0,18.14.07,27.21,0,4.52,2.16,6.52,6.79,6.57,4.41,0,8.81,0,13.22,0,4.66,0,9.33-.09,14,0,2,.06,2.74-.49,2.67-2.59C90.86,29.67,90.84,25.13,91,20.6Z" transform="translate(0.02 -0.05)"/><path class="cls-1" d="M36.71,60.93c-.06-4.42-2.12-6.39-6.48-6.47-4.53-.08-9.07,0-13.61,0s-9.33.11-14,0C.54,54.33,0,55.06,0,57.06c.13,4.53.16,9.07,0,13.6C-.07,73,.87,73.46,3,73.38c4-.13,8,.1,12.05-.08,2.29-.11,2.84.72,2.76,2.85-.15,4.15,0,8.3-.07,12.45,0,1.77.43,2.58,2.37,2.54q7.2-.17,14.39,0c2,.05,2.33-.92,2.32-2.6C36.72,79.33,36.82,70.12,36.71,60.93Z" transform="translate(0.02 -0.05)"/><path class="cls-1" d="M34,.06C29.5.25,25,.24,20.43.06,18.09,0,17.61.88,17.69,3c.14,3.76-.15,7.53.08,11.27.17,2.78-.44,4-3.54,3.72-3.6-.3-7.26.07-10.87-.13C.93,17.71-.14,18.25,0,21c.22,4.27.19,8.55,0,12.83-.11,2.42.68,3.05,3.06,3,8.94-.14,17.88,0,26.82-.07,4.77,0,6.75-2,6.84-6.93.09-4.41,0-8.81,0-13.22s-.08-9.07,0-13.6C36.84.91,36.4,0,34,.06Z" transform="translate(0.02 -0.05)"/></svg>