<svg id="Layer_1" data-name="Layer 1" xmlns="http://www.w3.org/2000/svg" viewBox="0 0 299.36 299.35"><defs><style>.cls-1{fill:#fff;}</style></defs><path class="cls-1" d="M-307.3,373.84c-24.91-24.82-49.89-49.55-74.55-74C-338,230.41-365.93,166-405.32,136.41c-46.88-35.13-111.31-30.93-152.79,10S-604.4,251.92-569.52,299c37.4,50.47,98.45,60,164.87,24.36,24.15,24.64,48.72,49.79,73.39,74.86,14.85,15.09,23.22,17.33,32.21,9C-289.6,398.38-291.78,389.27-307.3,373.84Zm-168.56-56.67c-48.22.16-87.8-39.39-87.71-87.68.06-49,38.41-87.44,87.41-87.65,48.5-.18,88,39,88,87.28S-427.6,317-475.86,317.17Z" transform="translate(592.76 -112.64)"/></svg>