<?xml version="1.0" encoding="utf-8"?>
<!-- Generator: Adobe Illustrator 25.2.0, SVG Export Plug-In . SVG Version: 6.00 Build 0)  -->
<svg version="1.1" id="Layer_1" xmlns="http://www.w3.org/2000/svg" xmlns:xlink="http://www.w3.org/1999/xlink" x="0px" y="0px"
	 viewBox="0 0 101.8 101.8" style="enable-background:new 0 0 101.8 101.8;" xml:space="preserve">
<style type="text/css">
	.st0{fill:#FDFDFD;}
</style>
<g>
	<path class="st0" d="M91.6,40.9c-1.3,0-2.7,0.6-3.7-1.2c-3.7-6.5-3.6-7.9,1.6-13.2c0.3-0.3,0.6-0.6,0.9-0.9
		c2.4-2.3,2.6-4.7,0.2-7.2c-2.4-2.4-4.7-4.7-7.1-7.1c-2.4-2.4-4.8-2.3-7.2,0.2c-1.3,1.4-2.6,2.7-4,4c-0.7,0.7-1.2,2-2.3,1.7
		c-2.9-1-5.9-1.9-8.3-3.6c-1.5-1-0.5-3.5-0.6-5.4C61.1,0.5,60.6,0,53,0h-1.8c-1.3,0-2.6,0-3.9,0c-5,0-6.1,1.1-6.2,6.1
		c0,1-0.1,2.1,0,3c0.4,3.1-0.8,4.4-3.8,6c-4.7,2.4-7.6,1.6-10.4-2.4c-0.3-0.5-0.8-0.8-1.2-1.2c-2.4-2.4-4.7-2.6-7.2-0.1
		c-2.3,2.4-4.7,4.7-7.1,7.1c-2.4,2.4-2.3,4.8,0.2,7.2c1.4,1.3,2.7,2.6,4,4c0.7,0.7,2,1.3,1.6,2.4c-1,2.9-1.8,6-3.6,8.3
		c-1.1,1.5-3.8,0.5-5.8,0.5c-7.2,0.1-7.7,0.6-7.7,7.6v2.2c0,10,0,10,10.1,10.1c1.3,0,2.8-0.7,3.9,1c3.6,5.6,3.4,8.4-1.4,13.2
		c-0.3,0.3-0.6,0.6-0.9,0.9c-2.9,2.7-2.6,5.2,0.1,7.8c0.8,0.8,1.6,1.6,2.5,2.5c6.9,6.7,6.9,9,15.2,0.1c0.8-0.8,1.4-2.1,3.2-1.6
		c6.8,1.7,8.2,3.4,8.3,10.4v1.7c0,3.2,1.8,4.8,4.9,4.9c1.5,0.1,2.9,0,4.3,0c9.2,0,11.2,1.3,10.7-10.4c0-1.3-0.5-2.7,1.3-3.7
		c6.4-3.6,7.7-3.5,13.1,1.7c0.4,0.4,0.8,0.8,1.2,1.2c2.2,2,4.4,2,6.6,0c1.1-1,2-2.1,3.1-3.1c7.7-7.5,8.2-7.7,0.3-15.2
		c-0.8-0.8-2.2-1.3-1.8-3.1c1.5-6.5,3.6-8.3,10.4-8.3c0.6,0,1.2,0,1.8,0c3.2-0.1,4.8-1.7,4.9-4.9c0.1-1.5,0-2.9,0-4.4
		C102.1,41.8,102.7,40.5,91.6,40.9z M51.2,68.2c-9.7,0-17.5-7.7-17.6-17.3c-0.1-9.5,7.8-17.5,17.4-17.6c9.5-0.1,17.4,7.7,17.5,17.4
		C68.6,60.4,60.8,68.2,51.2,68.2z"/>
</g>
</svg>
