<?xml version="1.0" encoding="utf-8"?>
<!-- Generator: Adobe Illustrator 25.2.0, SVG Export Plug-In . SVG Version: 6.00 Build 0)  -->
<svg version="1.1" id="Layer_1" xmlns="http://www.w3.org/2000/svg" xmlns:xlink="http://www.w3.org/1999/xlink" x="0px" y="0px"
	 viewBox="0 0 266.4 265.2" style="enable-background:new 0 0 266.4 265.2;" xml:space="preserve">
<style type="text/css">
	.st0{fill:#FFC261;}
</style>
<path class="st0" d="M266.4,72.2v148.3c-0.2,0.3-0.3,0.6-0.4,0.9c-3.4,11-10,15.8-21.4,15.8c-74.2,0-148.4,0-222.6,0
	c-2.2,0.1-4.3-0.1-6.4-0.5C5.9,234.3,0,226.7,0,216.9c0-18.9,0-37.8,0-56.7c0-28,0-56,0-84c-0.1-4.7,1.4-9.3,4.3-13
	c4.5-5.6,10.5-7.7,17.6-7.7c74.2,0.1,148.4,0.1,222.6,0c1,0,2.1,0,3.1,0.1c4.2,0.2,8.2,1.7,11.4,4.4C263,63.1,265,67.5,266.4,72.2z
	 M108.9,83.6c-21.3,0-42.6,0.2-64-0.1c-8.4-0.1-15.6,5.2-15.5,15.4c0.2,31.7,0.1,63.4,0.1,95.2c-0.1,1.6,0.1,3.3,0.4,4.9
	c1.7,6.8,7,10.4,15.1,10.4c42.5,0,84.9,0,127.4,0c1.9,0,3.8-0.2,5.7-0.6c5.6-1.3,9.6-6.2,9.8-12c0.1-33.5,0.1-67.1,0-100.6
	c0-0.8-0.1-1.6-0.3-2.3c-1.7-6.5-6.9-10.2-14.2-10.2C151.9,83.6,130.4,83.6,108.9,83.6z M227.5,167.9c4.3,0,8.7,0,13,0
	c3.1,0,4.1-0.9,4.1-4c0-6.6,0-13.2,0-19.7c0-2.8-0.9-3.8-3.8-3.8c-8.9,0-17.8,0-26.7,0c-2.9,0-3.9,1-3.9,4c0,6.5,0,13,0,19.5
	c0,3,1,4,4.1,4C218.7,168,223.1,167.9,227.5,167.9z M227.5,94.5c-4.5,0-9,0-13.5,0c-2.7,0-3.7,1-3.8,3.5c-0.1,6.8,0,13.5,0,20.3
	c0,2.4,1.2,3.5,3.5,3.5c9.1,0,18.2,0,27.3,0c2.8,0,3.6-0.9,3.6-3.6c0-6.7,0-13.3,0-20c0-2.6-1-3.6-3.6-3.6
	C236.5,94.5,231.9,94.5,227.5,94.5L227.5,94.5z"/>
<path class="st0" d="M125.2,46c-7.5,0-14.7,0-21.9,0c-0.8-0.1-1.6-0.5-2.1-1.2c-8.7-9.9-17.4-19.8-26-29.7c-3.5-4-3.2-9.6,0.4-12.8
	c3.6-3.3,9.2-3,12.5,0.7c0.1,0.1,0.2,0.2,0.3,0.3c12.2,13.8,24.3,27.8,36.4,41.7C125,45.3,125.1,45.6,125.2,46z"/>
<path class="st0" d="M143.4,45c1.5-1.5,3.1-2.9,4.6-4.4c6.6-6.6,13.2-13.2,19.9-19.8c2.6-2.6,5.7-3.9,9.4-2.6c3.3,1.1,5.7,4,6.1,7.4
	c0.4,2.4-0.4,4.9-2.1,6.7c-4.2,4.3-8.5,8.4-12.8,12.6c-0.6,0.5-1.3,0.7-2.1,0.7c-7.5,0-15.1,0-22.6,0L143.4,45z"/>
<path class="st0" d="M19.8,246.9h30.6c0,3.2,0.2,6.2-0.1,9.2c-0.4,5-4.4,8.6-9.8,8.9c-3.5,0.2-7.1,0.2-10.6,0
	c-6.3-0.3-10.1-4.5-10.1-10.9C19.8,251.9,19.8,249.5,19.8,246.9z"/>
<path class="st0" d="M215.9,246.9h30.5c0.2,3.2,0.1,6.4-0.1,9.6c-0.6,4.8-4.4,8.2-9.7,8.5c-3.6,0.2-7.3,0.2-10.9,0
	c-6.1-0.4-9.9-4.6-9.9-10.7C215.9,251.9,215.9,249.5,215.9,246.9z"/>
</svg>
