<svg id="Layer_1" data-name="Layer 1" xmlns="http://www.w3.org/2000/svg" viewBox="0 0 118.92 142.53"><defs><style>.cls-1{opacity:0.83;}.cls-2{fill:none;stroke:#fff;stroke-miterlimit:10;}</style></defs><g class="cls-1"><path class="cls-2" d="M365.26,451.67c-.25,6-2.83,10.08-9.28,11.25a227.79,227.79,0,0,1-27.37,2.92c-7.61.46-15.25.1-22.88.1,0,.26,0,.53,0,.8-15-.85-30.08-1.24-45-2.72-10.84-1.07-14.5-6.86-12.93-17.7,3.61-24.91,21.76-40.79,47-40.72,11.32,0,22.76-.34,33.92,1.19C349.71,409.66,366.14,430.49,365.26,451.67Z" transform="translate(-246.87 -324.73)"/><path class="cls-2" d="M341,360.93c-.14,19.3-16.73,35.14-36.65,35-19.25-.12-35.68-16.76-35.35-35.81a35.75,35.75,0,0,1,36.13-34.91C325,325.29,341.15,341.37,341,360.93Z" transform="translate(-246.87 -324.73)"/></g></svg>