<?xml version="1.0" encoding="utf-8"?>
<!-- Generator: Adobe Illustrator 25.2.0, SVG Export Plug-In . SVG Version: 6.00 Build 0)  -->
<svg version="1.1" id="Layer_1" xmlns="http://www.w3.org/2000/svg" xmlns:xlink="http://www.w3.org/1999/xlink" x="0px" y="0px"
	 viewBox="0 0 118.9 142.5" style="enable-background:new 0 0 118.9 142.5;" xml:space="preserve">
<style type="text/css">
	.st0{fill:none;stroke:#FFFFFF;stroke-width:3;stroke-miterlimit:10;}
</style>
<g>
	<path class="st0" d="M118.4,126.9c-0.2,6-2.8,10.1-9.3,11.2c-9.1,1.5-18.2,2.5-27.4,2.9c-7.6,0.5-15.2,0.1-22.9,0.1
		c0,0.3,0,0.5,0,0.8c-15-0.9-30.1-1.2-45-2.7C3,138.2-0.6,132.4,0.9,121.6c3.6-24.9,21.8-40.8,47-40.7c11.3,0,22.8-0.3,33.9,1.2
		C102.8,84.9,119.3,105.8,118.4,126.9z"/>
	<path class="st0" d="M94.1,36.2c-0.1,19.3-16.7,35.1-36.6,35c-19.2-0.1-35.7-16.8-35.4-35.8C22.6,15.8,38.7,0.3,58.3,0.5
		C78.1,0.6,94.3,16.6,94.1,36.2z"/>
</g>
</svg>
